<svg xmlns="http://www.w3.org/2000/svg" viewBox="0 0 1920 1080">
    <path d="M1050,523L1091,696L1288,500Z" fill="rgb(108,112,122)" stroke="rgb(108,112,122)" stroke-width="1.51"></path>
    <path d="M1091,696L1309,753L1288,500Z" fill="rgb(94,98,108)" stroke="rgb(94,98,108)" stroke-width="1.51"></path>
    <path d="M1288,500L1088,335L1050,523Z" fill="rgb(122,126,135)" stroke="rgb(122,126,135)" stroke-width="1.51"></path>
    <path d="M1050,523L863,737L1091,696Z" fill="rgb(109,113,124)" stroke="rgb(109,113,124)" stroke-width="1.51"></path>
    <path d="M860,264L838,537L1050,523Z" fill="rgb(139,143,152)" stroke="rgb(139,143,152)" stroke-width="1.51"></path>
    <path d="M838,537L863,737L1050,523Z" fill="rgb(120,125,135)" stroke="rgb(120,125,135)" stroke-width="1.51"></path>
    <path d="M1091,696L1038,993L1309,753Z" fill="rgb(81,86,98)" stroke="rgb(81,86,98)" stroke-width="1.51"></path>
    <path d="M1288,500L1317,262L1088,335Z" fill="rgb(125,129,138)" stroke="rgb(125,129,138)" stroke-width="1.51"></path>
    <path d="M1533,504L1317,262L1288,500Z" fill="rgb(108,112,121)" stroke="rgb(108,112,121)" stroke-width="1.51"></path>
    <path d="M1309,753L1533,504L1288,500Z" fill="rgb(90,94,105)" stroke="rgb(90,94,105)" stroke-width="1.51"></path>
    <path d="M1309,753L1520,747L1533,504Z" fill="rgb(76,81,91)" stroke="rgb(76,81,91)" stroke-width="1.51"></path>
    <path d="M1088,335L860,264L1050,523Z" fill="rgb(140,144,153)" stroke="rgb(140,144,153)" stroke-width="1.51"></path>
    <path d="M1317,262L1103,179L1088,335Z" fill="rgb(142,145,154)" stroke="rgb(142,145,154)" stroke-width="1.51"></path>
    <path d="M863,737L1038,993L1091,696Z" fill="rgb(92,97,108)" stroke="rgb(92,97,108)" stroke-width="1.51"></path>
    <path d="M1309,753L1474,930L1520,747Z" fill="rgb(63,67,79)" stroke="rgb(63,67,79)" stroke-width="1.51"></path>
    <path d="M1103,179L860,264L1088,335Z" fill="rgb(153,156,165)" stroke="rgb(153,156,165)" stroke-width="1.51"></path>
    <path d="M1302,1046L1474,930L1309,753Z" fill="rgb(57,63,74)" stroke="rgb(57,63,74)" stroke-width="1.51"></path>
    <path d="M1533,504L1570,334L1317,262Z" fill="rgb(107,111,120)" stroke="rgb(107,111,120)" stroke-width="1.51"></path>
    <path d="M1317,262L1266,106L1103,179Z" fill="rgb(146,150,158)" stroke="rgb(146,150,158)" stroke-width="1.51"></path>
    <path d="M1702,331L1570,334L1533,504Z" fill="rgb(94,98,107)" stroke="rgb(94,98,107)" stroke-width="1.51"></path>
    <path d="M1038,993L1302,1046L1309,753Z" fill="rgb(65,70,82)" stroke="rgb(65,70,82)" stroke-width="1.51"></path>
    <path d="M1453,156L1266,106L1317,262Z" fill="rgb(139,142,150)" stroke="rgb(139,142,150)" stroke-width="1.51"></path>
    <path d="M1103,179L816,177L860,264Z" fill="rgb(166,169,177)" stroke="rgb(166,169,177)" stroke-width="1.51"></path>
    <path d="M1570,334L1453,156L1317,262Z" fill="rgb(122,125,134)" stroke="rgb(122,125,134)" stroke-width="1.51"></path>
    <path d="M838,537L658,573L863,737Z" fill="rgb(128,132,142)" stroke="rgb(128,132,142)" stroke-width="1.51"></path>
    <path d="M863,737L814,1013L1038,993Z" fill="rgb(86,92,103)" stroke="rgb(86,92,103)" stroke-width="1.51"></path>
    <path d="M642,389L658,573L838,537Z" fill="rgb(146,150,160)" stroke="rgb(146,150,160)" stroke-width="1.51"></path>
    <path d="M860,264L642,389L838,537Z" fill="rgb(154,157,167)" stroke="rgb(154,157,167)" stroke-width="1.51"></path>
    <path d="M1097,-83L816,177L1103,179Z" fill="rgb(174,177,184)" stroke="rgb(174,177,184)" stroke-width="1.51"></path>
    <path d="M1520,747L1696,761L1533,504Z" fill="rgb(66,71,81)" stroke="rgb(66,71,81)" stroke-width="1.51"></path>
    <path d="M1474,930L1696,761L1520,747Z" fill="rgb(53,58,69)" stroke="rgb(53,58,69)" stroke-width="1.51"></path>
    <path d="M1038,993L1223,1140L1302,1046Z" fill="rgb(54,59,71)" stroke="rgb(54,59,71)" stroke-width="1.51"></path>
    <path d="M1668,1248L1748,972L1474,930Z" fill="rgb(26,32,43)" stroke="rgb(26,32,43)" stroke-width="1.51"></path>
    <path d="M1474,930L1748,972L1696,761Z" fill="rgb(40,45,57)" stroke="rgb(40,45,57)" stroke-width="1.51"></path>
    <path d="M658,573L673,825L863,737Z" fill="rgb(120,125,136)" stroke="rgb(120,125,136)" stroke-width="1.51"></path>
    <path d="M1038,993L1122,1221L1223,1140Z" fill="rgb(55,61,73)" stroke="rgb(55,61,73)" stroke-width="1.51"></path>
    <path d="M673,825L814,1013L863,737Z" fill="rgb(100,106,117)" stroke="rgb(100,106,117)" stroke-width="1.51"></path>
    <path d="M458,927L655,934L673,825Z" fill="rgb(108,114,125)" stroke="rgb(108,114,125)" stroke-width="1.51"></path>
    <path d="M816,177L642,389L860,264Z" fill="rgb(168,172,180)" stroke="rgb(168,172,180)" stroke-width="1.51"></path>
    <path d="M1570,334L1753,174L1453,156Z" fill="rgb(114,117,126)" stroke="rgb(114,117,126)" stroke-width="1.51"></path>
    <path d="M1778,548L1702,331L1533,504Z" fill="rgb(81,85,95)" stroke="rgb(81,85,95)" stroke-width="1.51"></path>
    <path d="M1696,761L1778,548L1533,504Z" fill="rgb(66,71,82)" stroke="rgb(66,71,82)" stroke-width="1.51"></path>
    <path d="M443,592L673,825L658,573Z" fill="rgb(135,140,150)" stroke="rgb(135,140,150)" stroke-width="1.51"></path>
    <path d="M673,825L655,934L814,1013Z" fill="rgb(98,103,115)" stroke="rgb(98,103,115)" stroke-width="1.51"></path>
    <path d="M810,1150L1038,993L814,1013Z" fill="rgb(73,79,91)" stroke="rgb(73,79,91)" stroke-width="1.51"></path>
    <path d="M810,1150L1122,1221L1038,993Z" fill="rgb(64,70,82)" stroke="rgb(64,70,82)" stroke-width="1.51"></path>
    <path d="M1540,1258L1474,930L1302,1046Z" fill="rgb(35,41,53)" stroke="rgb(35,41,53)" stroke-width="1.51"></path>
    <path d="M1266,106L1097,-83L1103,179Z" fill="rgb(165,168,176)" stroke="rgb(165,168,176)" stroke-width="1.51"></path>
    <path d="M1352,-172L1097,-83L1266,106Z" fill="rgb(167,170,177)" stroke="rgb(167,170,177)" stroke-width="1.51">
    </path>
    <path d="M597,1177L810,1150L814,1013Z" fill="rgb(79,85,97)" stroke="rgb(79,85,97)" stroke-width="1.51"></path>
    <path d="M1696,761L1945,709L1778,548Z" fill="rgb(55,60,71)" stroke="rgb(55,60,71)" stroke-width="1.51"></path>
    <path d="M1540,1258L1302,1046L1223,1140Z" fill="rgb(41,46,58)" stroke="rgb(41,46,58)" stroke-width="1.51"></path>
    <path d="M1702,331L1753,174L1570,334Z" fill="rgb(101,104,114)" stroke="rgb(101,104,114)" stroke-width="1.51"></path>
    <path d="M1453,156L1450,-109L1266,106Z" fill="rgb(149,153,160)" stroke="rgb(149,153,160)" stroke-width="1.51">
    </path>
    <path d="M1920,315L1753,174L1702,331Z" fill="rgb(97,101,110)" stroke="rgb(97,101,110)" stroke-width="1.51"></path>
    <path d="M642,389L443,592L658,573Z" fill="rgb(153,157,167)" stroke="rgb(153,157,167)" stroke-width="1.51"></path>
    <path d="M402,261L443,592L642,389Z" fill="rgb(171,175,184)" stroke="rgb(171,175,184)" stroke-width="1.51"></path>
    <path d="M1644,-58L1450,-109L1453,156Z" fill="rgb(145,148,155)" stroke="rgb(145,148,155)" stroke-width="1.51">
    </path>
    <path d="M816,177L622,80L642,389Z" fill="rgb(181,185,192)" stroke="rgb(181,185,192)" stroke-width="1.51"></path>
    <path d="M783,-135L622,80L816,177Z" fill="rgb(199,202,208)" stroke="rgb(199,202,208)" stroke-width="1.51"></path>
    <path d="M1352,1409L1540,1258L1223,1140Z" fill="rgb(40,45,57)" stroke="rgb(40,45,57)" stroke-width="1.51"></path>
    <path d="M1450,-109L1352,-172L1266,106Z" fill="rgb(158,161,168)" stroke="rgb(158,161,168)" stroke-width="1.51">
    </path>
    <path d="M1097,-83L783,-135L816,177Z" fill="rgb(192,195,202)" stroke="rgb(192,195,202)" stroke-width="1.51"></path>
    <path d="M1778,548L1920,315L1702,331Z" fill="rgb(84,88,97)" stroke="rgb(84,88,97)" stroke-width="1.51"></path>
    <path d="M1748,972L1945,709L1696,761Z" fill="rgb(41,46,58)" stroke="rgb(41,46,58)" stroke-width="1.51"></path>
    <path d="M1949,985L1945,709L1748,972Z" fill="rgb(32,37,49)" stroke="rgb(32,37,49)" stroke-width="1.51"></path>
    <path d="M1753,174L1644,-58L1453,156Z" fill="rgb(126,129,137)" stroke="rgb(126,129,137)" stroke-width="1.51"></path>
    <path d="M1978,563L1920,315L1778,548Z" fill="rgb(73,77,87)" stroke="rgb(73,77,87)" stroke-width="1.51"></path>
    <path d="M1450,-109L1486,-341L1352,-172Z" fill="rgb(152,155,162)" stroke="rgb(152,155,162)" stroke-width="1.51">
    </path>
    <path d="M1935,35L1644,-58L1753,174Z" fill="rgb(123,126,134)" stroke="rgb(123,126,134)" stroke-width="1.51"></path>
    <path d="M351,733L458,927L673,825Z" fill="rgb(123,127,139)" stroke="rgb(123,127,139)" stroke-width="1.51"></path>
    <path d="M655,934L597,1177L814,1013Z" fill="rgb(86,92,104)" stroke="rgb(86,92,104)" stroke-width="1.51"></path>
    <path d="M1945,709L1978,563L1778,548Z" fill="rgb(59,63,74)" stroke="rgb(59,63,74)" stroke-width="1.51"></path>
    <path d="M851,-268L783,-135L1097,-83Z" fill="rgb(192,195,201)" stroke="rgb(192,195,201)" stroke-width="1.51"></path>
    <path d="M1540,1258L1668,1248L1474,930Z" fill="rgb(27,33,45)" stroke="rgb(27,33,45)" stroke-width="1.51"></path>
    <path d="M458,927L597,1177L655,934Z" fill="rgb(97,102,115)" stroke="rgb(97,102,115)" stroke-width="1.51"></path>
    <path d="M1033,1452L1352,1409L1122,1221Z" fill="rgb(53,58,70)" stroke="rgb(53,58,70)" stroke-width="1.51"></path>
    <path d="M1122,1221L1352,1409L1223,1140Z" fill="rgb(48,54,66)" stroke="rgb(48,54,66)" stroke-width="1.51"></path>
    <path d="M485,-75L451,165L622,80Z" fill="rgb(213,216,223)" stroke="rgb(213,216,223)" stroke-width="1.51"></path>
    <path d="M622,80L451,165L642,389Z" fill="rgb(190,193,201)" stroke="rgb(190,193,201)" stroke-width="1.51"></path>
    <path d="M197,604L351,733L443,592Z" fill="rgb(154,159,169)" stroke="rgb(154,159,169)" stroke-width="1.51"></path>
    <path d="M443,592L351,733L673,825Z" fill="rgb(136,140,151)" stroke="rgb(136,140,151)" stroke-width="1.51"></path>
    <path d="M451,165L402,261L642,389Z" fill="rgb(188,191,199)" stroke="rgb(188,191,199)" stroke-width="1.51"></path>
    <path d="M1540,1258L1539,1383L1668,1248Z" fill="rgb(26,32,44)" stroke="rgb(26,32,44)" stroke-width="1.51"></path>
    <path d="M900,1392L1122,1221L810,1150Z" fill="rgb(67,72,85)" stroke="rgb(67,72,85)" stroke-width="1.51"></path>
    <path d="M611,1411L900,1392L810,1150Z" fill="rgb(77,83,95)" stroke="rgb(77,83,95)" stroke-width="1.51"></path>
    <path d="M1899,1167L1949,985L1748,972Z" fill="rgb(18,24,35)" stroke="rgb(18,24,35)" stroke-width="1.51"></path>
    <path d="M1945,709L2080,732L1978,563Z" fill="rgb(52,57,68)" stroke="rgb(52,57,68)" stroke-width="1.51"></path>
    <path d="M1668,1248L1899,1167L1748,972Z" fill="rgb(17,23,35)" stroke="rgb(17,23,35)" stroke-width="1.51"></path>
    <path d="M1352,1409L1539,1383L1540,1258Z" fill="rgb(33,39,51)" stroke="rgb(33,39,51)" stroke-width="1.51"></path>
    <path d="M900,1392L1033,1452L1122,1221Z" fill="rgb(62,68,80)" stroke="rgb(62,68,80)" stroke-width="1.51"></path>
    <path d="M1352,-172L1231,-308L1097,-83Z" fill="rgb(168,171,178)" stroke="rgb(168,171,178)" stroke-width="1.51">
    </path>
    <path d="M1486,-341L1231,-308L1352,-172Z" fill="rgb(158,161,168)" stroke="rgb(158,161,168)" stroke-width="1.51">
    </path>
    <path d="M1231,-308L1062,-320L1097,-83Z" fill="rgb(175,178,185)" stroke="rgb(175,178,185)" stroke-width="1.51">
    </path>
    <path d="M1062,-320L851,-268L1097,-83Z" fill="rgb(185,188,194)" stroke="rgb(185,188,194)" stroke-width="1.51">
    </path>
    <path d="M783,-135L563,-125L622,80Z" fill="rgb(210,213,219)" stroke="rgb(210,213,219)" stroke-width="1.51"></path>
    <path d="M2081,906L2080,732L1945,709Z" fill="rgb(41,46,57)" stroke="rgb(41,46,57)" stroke-width="1.51"></path>
    <path d="M1978,563L2092,564L1920,315Z" fill="rgb(71,75,86)" stroke="rgb(71,75,86)" stroke-width="1.51"></path>
    <path d="M2080,732L2092,564L1978,563Z" fill="rgb(57,61,72)" stroke="rgb(57,61,72)" stroke-width="1.51"></path>
    <path d="M1949,985L2081,906L1945,709Z" fill="rgb(33,38,49)" stroke="rgb(33,38,49)" stroke-width="1.51"></path>
    <path d="M1783,1464L1899,1167L1668,1248Z" fill="rgb(17,23,34)" stroke="rgb(17,23,34)" stroke-width="1.51"></path>
    <path d="M1920,315L1935,35L1753,174Z" fill="rgb(106,109,118)" stroke="rgb(106,109,118)" stroke-width="1.51"></path>
    <path d="M1644,-58L1486,-341L1450,-109Z" fill="rgb(144,147,155)" stroke="rgb(144,147,155)" stroke-width="1.51">
    </path>
    <path d="M2160,133L1935,35L1920,315Z" fill="rgb(106,109,117)" stroke="rgb(106,109,117)" stroke-width="1.51"></path>
    <path d="M630,-360L563,-125L783,-135Z" fill="rgb(210,213,219)" stroke="rgb(210,213,219)" stroke-width="1.51"></path>
    <path d="M243,60L140,355L402,261Z" fill="rgb(209,213,221)" stroke="rgb(209,213,221)" stroke-width="1.51"></path>
    <path d="M563,-125L485,-75L622,80Z" fill="rgb(217,220,226)" stroke="rgb(217,220,226)" stroke-width="1.51"></path>
    <path d="M2104,1179L2081,906L1949,985Z" fill="rgb(19,24,36)" stroke="rgb(19,24,36)" stroke-width="1.51"></path>
    <path d="M2080,732L2212,257L2092,564Z" fill="rgb(68,71,82)" stroke="rgb(68,71,82)" stroke-width="1.51"></path>
    <path d="M1688,-378L1486,-341L1644,-58Z" fill="rgb(138,141,148)" stroke="rgb(138,141,148)" stroke-width="1.51">
    </path>
    <path d="M1231,-308L1486,-341L1062,-320Z" fill="rgb(166,169,175)" stroke="rgb(166,169,175)" stroke-width="1.51">
    </path>
    <path d="M351,733L234,1024L458,927Z" fill="rgb(124,129,141)" stroke="rgb(124,129,141)" stroke-width="1.51"></path>
    <path d="M371,1380L611,1411L597,1177Z" fill="rgb(93,98,111)" stroke="rgb(93,98,111)" stroke-width="1.51"></path>
    <path d="M140,355L197,604L443,592Z" fill="rgb(174,178,188)" stroke="rgb(174,178,188)" stroke-width="1.51"></path>
    <path d="M140,355L443,592L402,261Z" fill="rgb(183,187,196)" stroke="rgb(183,187,196)" stroke-width="1.51"></path>
    <path d="M597,1177L611,1411L810,1150Z" fill="rgb(83,89,101)" stroke="rgb(83,89,101)" stroke-width="1.51"></path>
    <path d="M900,1392L611,1411L1033,1452Z" fill="rgb(72,78,91)" stroke="rgb(72,78,91)" stroke-width="1.51"></path>
    <path d="M346,1241L597,1177L458,927Z" fill="rgb(96,102,114)" stroke="rgb(96,102,114)" stroke-width="1.51"></path>
    <path d="M197,604L170,713L351,733Z" fill="rgb(155,160,171)" stroke="rgb(155,160,171)" stroke-width="1.51"></path>
    <path d="M170,713L234,1024L351,733Z" fill="rgb(138,143,154)" stroke="rgb(138,143,154)" stroke-width="1.51"></path>
    <path d="M234,1024L346,1241L458,927Z" fill="rgb(105,110,123)" stroke="rgb(105,110,123)" stroke-width="1.51"></path>
    <path d="M1935,35L1997,-85L1644,-58Z" fill="rgb(126,129,136)" stroke="rgb(126,129,136)" stroke-width="1.51"></path>
    <path d="M2160,133L1997,-85L1935,35Z" fill="rgb(121,123,131)" stroke="rgb(121,123,131)" stroke-width="1.51"></path>
    <path d="M243,60L402,261L451,165Z" fill="rgb(211,214,221)" stroke="rgb(211,214,221)" stroke-width="1.51"></path>
    <path d="M197,604L18,595L170,713Z" fill="rgb(167,171,179)" stroke="rgb(167,171,179)" stroke-width="1.51"></path>
    <path d="M1539,1383L1783,1464L1668,1248Z" fill="rgb(21,27,38)" stroke="rgb(21,27,38)" stroke-width="1.51"></path>
    <path d="M1899,1167L2104,1179L1949,985Z" fill="rgb(13,19,31)" stroke="rgb(13,19,31)" stroke-width="1.51"></path>
    <path d="M1352,1409L1783,1464L1539,1383Z" fill="rgb(27,33,45)" stroke="rgb(27,33,45)" stroke-width="1.51"></path>
    <path d="M1033,1452L1783,1464L1352,1409Z" fill="rgb(39,45,56)" stroke="rgb(39,45,56)" stroke-width="1.51"></path>
    <path d="M227,-68L243,60L485,-75Z" fill="rgb(234,237,243)" stroke="rgb(234,237,243)" stroke-width="1.51"></path>
    <path d="M485,-75L243,60L451,165Z" fill="rgb(222,225,232)" stroke="rgb(222,225,232)" stroke-width="1.51"></path>
    <path d="M2212,257L1920,315L2092,564Z" fill="rgb(82,86,96)" stroke="rgb(82,86,96)" stroke-width="1.51"></path>
    <path d="M2212,257L2160,133L1920,315Z" fill="rgb(98,101,110)" stroke="rgb(98,101,110)" stroke-width="1.51"></path>
    <path d="M2081,906L2212,257L2080,732Z" fill="rgb(56,60,71)" stroke="rgb(56,60,71)" stroke-width="1.51"></path>
    <path d="M1486,-341L1688,-378L1062,-320Z" fill="rgb(154,157,164)" stroke="rgb(154,157,164)" stroke-width="1.51">
    </path>
    <path d="M1914,-349L1688,-378L1644,-58Z" fill="rgb(129,132,140)" stroke="rgb(129,132,140)" stroke-width="1.51">
    </path>
    <path d="M563,-125L393,-296L485,-75Z" fill="rgb(223,226,232)" stroke="rgb(223,226,232)" stroke-width="1.51"></path>
    <path d="M851,-268L630,-360L783,-135Z" fill="rgb(203,206,212)" stroke="rgb(203,206,212)" stroke-width="1.51"></path>
    <path d="M1062,-320L630,-360L851,-268Z" fill="rgb(196,199,205)" stroke="rgb(196,199,205)" stroke-width="1.51">
    </path>
    <path d="M1688,-378L630,-360L1062,-320Z" fill="rgb(176,179,185)" stroke="rgb(176,179,185)" stroke-width="1.51">
    </path>
    <path d="M2081,906L2207,1469L2212,257Z" fill="rgb(32,37,48)" stroke="rgb(32,37,48)" stroke-width="1.51"></path>
    <path d="M1988,1335L2104,1179L1899,1167Z" fill="rgb(13,19,31)" stroke="rgb(13,19,31)" stroke-width="1.51"></path>
    <path d="M1783,1464L1988,1335L1899,1167Z" fill="rgb(14,20,32)" stroke="rgb(14,20,32)" stroke-width="1.51"></path>
    <path d="M346,1241L371,1380L597,1177Z" fill="rgb(98,103,116)" stroke="rgb(98,103,116)" stroke-width="1.51"></path>
    <path d="M246,1443L371,1380L346,1241Z" fill="rgb(105,111,123)" stroke="rgb(105,111,123)" stroke-width="1.51"></path>
    <path d="M393,-296L227,-68L485,-75Z" fill="rgb(230,233,239)" stroke="rgb(230,233,239)" stroke-width="1.51"></path>
    <path d="M243,60L49,287L140,355Z" fill="rgb(216,218,224)" stroke="rgb(216,218,224)" stroke-width="1.51"></path>
    <path d="M234,1024L144,1139L346,1241Z" fill="rgb(110,115,128)" stroke="rgb(110,115,128)" stroke-width="1.51"></path>
    <path d="M170,713L-28,999L234,1024Z" fill="rgb(136,139,148)" stroke="rgb(136,139,148)" stroke-width="1.51"></path>
    <path d="M140,355L18,595L197,604Z" fill="rgb(183,185,193)" stroke="rgb(183,185,193)" stroke-width="1.51"></path>
    <path d="M49,287L18,595L140,355Z" fill="rgb(198,200,205)" stroke="rgb(198,200,205)" stroke-width="1.51"></path>
    <path d="M48,33L49,287L243,60Z" fill="rgb(231,233,237)" stroke="rgb(231,233,237)" stroke-width="1.51"></path>
    <path d="M18,595L15,730L170,713Z" fill="rgb(166,169,175)" stroke="rgb(166,169,175)" stroke-width="1.51"></path>
    <path d="M-28,999L144,1139L234,1024Z" fill="rgb(120,124,134)" stroke="rgb(120,124,134)" stroke-width="1.51"></path>
    <path d="M630,-360L393,-296L563,-125Z" fill="rgb(219,222,228)" stroke="rgb(219,222,228)" stroke-width="1.51"></path>
    <path d="M2161,-307L1914,-349L1997,-85Z" fill="rgb(124,126,134)" stroke="rgb(124,126,134)" stroke-width="1.51">
    </path>
    <path d="M1997,-85L1914,-349L1644,-58Z" fill="rgb(126,129,137)" stroke="rgb(126,129,137)" stroke-width="1.51">
    </path>
    <path d="M2160,133L2218,-41L1997,-85Z" fill="rgb(123,126,134)" stroke="rgb(123,126,134)" stroke-width="1.51"></path>
    <path d="M2212,257L2218,-41L2160,133Z" fill="rgb(110,114,122)" stroke="rgb(110,114,122)" stroke-width="1.51"></path>
    <path d="M49,287L-205,388L18,595Z" fill="rgb(202,203,206)" stroke="rgb(202,203,206)" stroke-width="1.51"></path>
    <path d="M227,-68L48,33L243,60Z" fill="rgb(243,245,250)" stroke="rgb(243,245,250)" stroke-width="1.51"></path>
    <path d="M-52,-163L48,33L227,-68Z" fill="rgb(250,251,253)" stroke="rgb(250,251,253)" stroke-width="1.51"></path>
    <path d="M371,1380L246,1443L611,1411Z" fill="rgb(100,105,118)" stroke="rgb(100,105,118)" stroke-width="1.51"></path>
    <path d="M611,1411L246,1443L1033,1452Z" fill="rgb(86,91,104)" stroke="rgb(86,91,104)" stroke-width="1.51"></path>
    <path d="M1033,1452L-244,1478L1783,1464Z" fill="rgb(72,78,90)" stroke="rgb(72,78,90)" stroke-width="1.51"></path>
    <path d="M144,1139L246,1443L346,1241Z" fill="rgb(109,115,128)" stroke="rgb(109,115,128)" stroke-width="1.51"></path>
    <path d="M393,-296L264,-301L227,-68Z" fill="rgb(235,238,244)" stroke="rgb(235,238,244)" stroke-width="1.51"></path>
    <path d="M630,-360L264,-301L393,-296Z" fill="rgb(226,229,235)" stroke="rgb(226,229,235)" stroke-width="1.51"></path>
    <path d="M144,1139L28,1392L246,1443Z" fill="rgb(116,120,130)" stroke="rgb(116,120,130)" stroke-width="1.51"></path>
    <path d="M15,730L-28,999L170,713Z" fill="rgb(151,154,161)" stroke="rgb(151,154,161)" stroke-width="1.51"></path>
    <path d="M-222,787L-28,999L15,730Z" fill="rgb(151,154,160)" stroke="rgb(151,154,160)" stroke-width="1.51"></path>
    <path d="M-222,787L15,730L18,595Z" fill="rgb(167,169,174)" stroke="rgb(167,169,174)" stroke-width="1.51"></path>
    <path d="M-28,999L37,1172L144,1139Z" fill="rgb(120,124,133)" stroke="rgb(120,124,133)" stroke-width="1.51"></path>
    <path d="M2218,-41L2161,-307L1997,-85Z" fill="rgb(124,126,134)" stroke="rgb(124,126,134)" stroke-width="1.51">
    </path>
    <path d="M1988,1335L2207,1469L2104,1179Z" fill="rgb(13,19,31)" stroke="rgb(13,19,31)" stroke-width="1.51"></path>
    <path d="M2104,1179L2207,1469L2081,906Z" fill="rgb(13,19,31)" stroke="rgb(13,19,31)" stroke-width="1.51"></path>
    <path d="M2212,257L2207,1469L2218,-41Z" fill="rgb(63,67,77)" stroke="rgb(63,67,77)" stroke-width="1.51"></path>
    <path d="M1783,1464L2207,1469L1988,1335Z" fill="rgb(13,19,31)" stroke="rgb(13,19,31)" stroke-width="1.51"></path>
    <path d="M-233,112L-205,388L49,287Z" fill="rgb(222,222,224)" stroke="rgb(222,222,224)" stroke-width="1.51"></path>
    <path d="M-233,112L49,287L48,33Z" fill="rgb(236,237,238)" stroke="rgb(236,237,238)" stroke-width="1.51"></path>
    <path d="M-205,388L-218,499L18,595Z" fill="rgb(193,194,198)" stroke="rgb(193,194,198)" stroke-width="1.51"></path>
    <path d="M-198,1235L28,1392L37,1172Z" fill="rgb(124,126,134)" stroke="rgb(124,126,134)" stroke-width="1.51"></path>
    <path d="M-198,1235L37,1172L-28,999Z" fill="rgb(124,126,134)" stroke="rgb(124,126,134)" stroke-width="1.51"></path>
    <path d="M37,1172L28,1392L144,1139Z" fill="rgb(120,123,132)" stroke="rgb(120,123,132)" stroke-width="1.51"></path>
    <path d="M-218,499L-222,787L18,595Z" fill="rgb(177,178,183)" stroke="rgb(177,178,183)" stroke-width="1.51"></path>
    <path d="M264,-301L-52,-163L227,-68Z" fill="rgb(245,247,251)" stroke="rgb(245,247,251)" stroke-width="1.51"></path>
    <path d="M-218,499L-262,1021L-222,787Z" fill="rgb(160,162,168)" stroke="rgb(160,162,168)" stroke-width="1.51">
    </path>
    <path d="M-205,388L-233,112L-218,499Z" fill="rgb(213,214,216)" stroke="rgb(213,214,216)" stroke-width="1.51"></path>
    <path d="M-52,-163L-233,112L48,33Z" fill="rgb(255,255,255)" stroke="rgb(255,255,255)" stroke-width="1.51"></path>
    <path d="M-222,787L-262,1021L-28,999Z" fill="rgb(140,143,149)" stroke="rgb(140,143,149)" stroke-width="1.51"></path>
    <path d="M-302,-112L-262,1021L-218,499Z" fill="rgb(196,197,201)" stroke="rgb(196,197,201)" stroke-width="1.51">
    </path>
    <path d="M-52,-163L-302,-112L-233,112Z" fill="rgb(255,255,255)" stroke="rgb(255,255,255)" stroke-width="1.51">
    </path>
    <path d="M264,-301L-8,-360L-52,-163Z" fill="rgb(250,251,253)" stroke="rgb(250,251,253)" stroke-width="1.51"></path>
    <path d="M630,-360L-8,-360L264,-301Z" fill="rgb(235,238,244)" stroke="rgb(235,238,244)" stroke-width="1.51"></path>
    <path d="M1688,-378L-8,-360L630,-360Z" fill="rgb(202,205,211)" stroke="rgb(202,205,211)" stroke-width="1.51"></path>
    <path d="M-262,1021L-198,1235L-28,999Z" fill="rgb(124,126,134)" stroke="rgb(124,126,134)" stroke-width="1.51">
    </path>
    <path d="M-8,-360L-209,-249L-52,-163Z" fill="rgb(255,255,255)" stroke="rgb(255,255,255)" stroke-width="1.51"></path>
    <path d="M-233,112L-302,-112L-218,499Z" fill="rgb(234,234,235)" stroke="rgb(234,234,235)" stroke-width="1.51">
    </path>
    <path d="M-209,-249L-302,-112L-52,-163Z" fill="rgb(255,255,255)" stroke="rgb(255,255,255)" stroke-width="1.51">
    </path>
    <path d="M28,1392L-244,1478L246,1443Z" fill="rgb(123,126,134)" stroke="rgb(123,126,134)" stroke-width="1.51"></path>
    <path d="M246,1443L-244,1478L1033,1452Z" fill="rgb(103,109,122)" stroke="rgb(103,109,122)" stroke-width="1.51">
    </path>
    <path d="M1783,1464L-244,1478L2207,1469Z" fill="rgb(48,53,65)" stroke="rgb(48,53,65)" stroke-width="1.51"></path>
    <path d="M-198,1235L-244,1478L28,1392Z" fill="rgb(124,126,134)" stroke="rgb(124,126,134)" stroke-width="1.51">
    </path>
    <path d="M-262,1021L-244,1478L-198,1235Z" fill="rgb(124,126,134)" stroke="rgb(124,126,134)" stroke-width="1.51">
    </path>
</svg>