<svg xmlns="http://www.w3.org/2000/svg" viewBox="0 0 500 1000">
    <path d="M218,564L201,455L110,454Z" fill="rgb(145,151,163)" stroke="rgb(145,151,163)" stroke-width="1.51"></path>
    <path d="M110,454L50,548L218,564Z" fill="rgb(154,160,172)" stroke="rgb(154,160,172)" stroke-width="1.51"></path>
    <path d="M117,766L246,716L218,564Z" fill="rgb(115,121,133)" stroke="rgb(115,121,133)" stroke-width="1.51"></path>
    <path d="M218,564L393,425L201,455Z" fill="rgb(122,128,140)" stroke="rgb(122,128,140)" stroke-width="1.51"></path>
    <path d="M110,454L-52,403L50,548Z" fill="rgb(184,189,198)" stroke="rgb(184,189,198)" stroke-width="1.51"></path>
    <path d="M-50,296L-52,403L110,454Z" fill="rgb(204,207,213)" stroke="rgb(204,207,213)" stroke-width="1.51"></path>
    <path d="M50,548L117,766L218,564Z" fill="rgb(139,145,157)" stroke="rgb(139,145,157)" stroke-width="1.51"></path>
    <path d="M-52,403L-80,598L50,548Z" fill="rgb(186,189,195)" stroke="rgb(186,189,195)" stroke-width="1.51"></path>
    <path d="M-38,729L117,766L50,548Z" fill="rgb(152,157,167)" stroke="rgb(152,157,167)" stroke-width="1.51"></path>
    <path d="M201,455L68,231L110,454Z" fill="rgb(173,179,191)" stroke="rgb(173,179,191)" stroke-width="1.51"></path>
    <path d="M409,617L393,425L218,564Z" fill="rgb(96,102,114)" stroke="rgb(96,102,114)" stroke-width="1.51"></path>
    <path d="M246,716L409,617L218,564Z" fill="rgb(96,102,114)" stroke="rgb(96,102,114)" stroke-width="1.51"></path>
    <path d="M-80,598L-38,729L50,548Z" fill="rgb(170,173,180)" stroke="rgb(170,173,180)" stroke-width="1.51"></path>
    <path d="M202,889L365,722L246,716Z" fill="rgb(82,88,100)" stroke="rgb(82,88,100)" stroke-width="1.51"></path>
    <path d="M246,716L365,722L409,617Z" fill="rgb(76,82,94)" stroke="rgb(76,82,94)" stroke-width="1.51"></path>
    <path d="M275,230L68,231L201,455Z" fill="rgb(168,174,186)" stroke="rgb(168,174,186)" stroke-width="1.51"></path>
    <path d="M68,231L-50,296L110,454Z" fill="rgb(202,207,217)" stroke="rgb(202,207,217)" stroke-width="1.51"></path>
    <path d="M-224,393L-226,600L-80,598Z" fill="rgb(184,187,193)" stroke="rgb(184,187,193)" stroke-width="1.51"></path>
    <path d="M393,425L275,230L201,455Z" fill="rgb(131,137,149)" stroke="rgb(131,137,149)" stroke-width="1.51"></path>
    <path d="M393,425L384,252L275,230Z" fill="rgb(123,129,141)" stroke="rgb(123,129,141)" stroke-width="1.51"></path>
    <path d="M566,422L384,252L393,425Z" fill="rgb(88,93,106)" stroke="rgb(88,93,106)" stroke-width="1.51"></path>
    <path d="M117,766L202,889L246,716Z" fill="rgb(100,106,119)" stroke="rgb(100,106,119)" stroke-width="1.51"></path>
    <path d="M72,918L202,889L117,766Z" fill="rgb(104,110,122)" stroke="rgb(104,110,122)" stroke-width="1.51"></path>
    <path d="M68,231L-30,76L-50,296Z" fill="rgb(229,232,238)" stroke="rgb(229,232,238)" stroke-width="1.51"></path>
    <path d="M275,230L85,142L68,231Z" fill="rgb(193,199,211)" stroke="rgb(193,199,211)" stroke-width="1.51"></path>
    <path d="M204,85L85,142L275,230Z" fill="rgb(187,193,205)" stroke="rgb(187,193,205)" stroke-width="1.51"></path>
    <path d="M-80,598L-226,600L-38,729Z" fill="rgb(167,170,177)" stroke="rgb(167,170,177)" stroke-width="1.51"></path>
    <path d="M-224,393L-80,598L-52,403Z" fill="rgb(193,196,202)" stroke="rgb(193,196,202)" stroke-width="1.51"></path>
    <path d="M-215,302L-224,393L-52,403Z" fill="rgb(207,210,216)" stroke="rgb(207,210,216)" stroke-width="1.51"></path>
    <path d="M-215,302L-52,403L-50,296Z" fill="rgb(211,214,221)" stroke="rgb(211,214,221)" stroke-width="1.51"></path>
    <path d="M-44,892L72,918L117,766Z" fill="rgb(123,129,140)" stroke="rgb(123,129,140)" stroke-width="1.51"></path>
    <path d="M-44,892L117,766L-38,729Z" fill="rgb(142,145,154)" stroke="rgb(142,145,154)" stroke-width="1.51"></path>
    <path d="M409,617L566,422L393,425Z" fill="rgb(72,78,90)" stroke="rgb(72,78,90)" stroke-width="1.51"></path>
    <path d="M589,596L566,422L409,617Z" fill="rgb(60,66,78)" stroke="rgb(60,66,78)" stroke-width="1.51"></path>
    <path d="M-252,772L-44,892L-38,729Z" fill="rgb(144,147,154)" stroke="rgb(144,147,154)" stroke-width="1.51"></path>
    <path d="M-233,102L-215,302L-50,296Z" fill="rgb(225,228,234)" stroke="rgb(225,228,234)" stroke-width="1.51"></path>
    <path d="M422,75L204,85L275,230Z" fill="rgb(158,164,176)" stroke="rgb(158,164,176)" stroke-width="1.51"></path>
    <path d="M593,786L409,617L365,722Z" fill="rgb(45,51,63)" stroke="rgb(45,51,63)" stroke-width="1.51"></path>
    <path d="M593,786L589,596L409,617Z" fill="rgb(46,51,63)" stroke="rgb(46,51,63)" stroke-width="1.51"></path>
    <path d="M85,142L-30,76L68,231Z" fill="rgb(226,231,240)" stroke="rgb(226,231,240)" stroke-width="1.51"></path>
    <path d="M48,-40L-30,76L85,142Z" fill="rgb(239,242,249)" stroke="rgb(239,242,249)" stroke-width="1.51"></path>
    <path d="M-226,600L-252,772L-38,729Z" fill="rgb(159,162,169)" stroke="rgb(159,162,169)" stroke-width="1.51"></path>
    <path d="M-224,393L-252,772L-226,600Z" fill="rgb(176,179,185)" stroke="rgb(176,179,185)" stroke-width="1.51"></path>
    <path d="M202,889L386,945L365,722Z" fill="rgb(60,65,78)" stroke="rgb(60,65,78)" stroke-width="1.51"></path>
    <path d="M241,1041L386,945L202,889Z" fill="rgb(62,68,80)" stroke="rgb(62,68,80)" stroke-width="1.51"></path>
    <path d="M386,945L593,786L365,722Z" fill="rgb(32,38,50)" stroke="rgb(32,38,50)" stroke-width="1.51"></path>
    <path d="M384,252L422,75L275,230Z" fill="rgb(134,140,152)" stroke="rgb(134,140,152)" stroke-width="1.51"></path>
    <path d="M204,85L48,-40L85,142Z" fill="rgb(219,223,232)" stroke="rgb(219,223,232)" stroke-width="1.51"></path>
    <path d="M543,75L422,75L384,252Z" fill="rgb(115,121,133)" stroke="rgb(115,121,133)" stroke-width="1.51"></path>
    <path d="M718,578L566,422L589,596Z" fill="rgb(62,67,80)" stroke="rgb(62,67,80)" stroke-width="1.51"></path>
    <path d="M695,271L602,252L566,422Z" fill="rgb(88,93,106)" stroke="rgb(88,93,106)" stroke-width="1.51"></path>
    <path d="M566,422L602,252L384,252Z" fill="rgb(88,94,106)" stroke="rgb(88,94,106)" stroke-width="1.51"></path>
    <path d="M133,1082L241,1041L202,889Z" fill="rgb(80,85,98)" stroke="rgb(80,85,98)" stroke-width="1.51"></path>
    <path d="M133,1082L202,889L72,918Z" fill="rgb(95,100,113)" stroke="rgb(95,100,113)" stroke-width="1.51"></path>
    <path d="M-31,1075L133,1082L72,918Z" fill="rgb(111,116,129)" stroke="rgb(111,116,129)" stroke-width="1.51"></path>
    <path d="M-252,772L-210,931L-44,892Z" fill="rgb(133,136,144)" stroke="rgb(133,136,144)" stroke-width="1.51"></path>
    <path d="M422,75L265,-26L204,85Z" fill="rgb(169,173,182)" stroke="rgb(169,173,182)" stroke-width="1.51"></path>
    <path d="M-31,1075L72,918L-44,892Z" fill="rgb(126,129,137)" stroke="rgb(126,129,137)" stroke-width="1.51"></path>
    <path d="M558,1049L415,1020L400,1218Z" fill="rgb(18,24,35)" stroke="rgb(18,24,35)" stroke-width="1.51"></path>
    <path d="M241,1041L415,1020L386,945Z" fill="rgb(42,48,60)" stroke="rgb(42,48,60)" stroke-width="1.51"></path>
    <path d="M386,945L583,907L593,786Z" fill="rgb(20,26,37)" stroke="rgb(20,26,37)" stroke-width="1.51"></path>
    <path d="M751,699L718,578L589,596Z" fill="rgb(51,56,69)" stroke="rgb(51,56,69)" stroke-width="1.51"></path>
    <path d="M-30,76L-233,102L-50,296Z" fill="rgb(235,238,244)" stroke="rgb(235,238,244)" stroke-width="1.51"></path>
    <path d="M265,-26L48,-40L204,85Z" fill="rgb(209,212,218)" stroke="rgb(209,212,218)" stroke-width="1.51"></path>
    <path d="M-279,-63L-233,102L-30,76Z" fill="rgb(250,251,253)" stroke="rgb(250,251,253)" stroke-width="1.51"></path>
    <path d="M-215,302L-233,102L-224,393Z" fill="rgb(221,224,230)" stroke="rgb(221,224,230)" stroke-width="1.51"></path>
    <path d="M-224,393L-279,-63L-252,772Z" fill="rgb(207,210,216)" stroke="rgb(207,210,216)" stroke-width="1.51"></path>
    <path d="M593,786L751,699L589,596Z" fill="rgb(42,48,60)" stroke="rgb(42,48,60)" stroke-width="1.51"></path>
    <path d="M415,1020L583,907L386,945Z" fill="rgb(19,25,37)" stroke="rgb(19,25,37)" stroke-width="1.51"></path>
    <path d="M-210,931L-31,1075L-44,892Z" fill="rgb(126,129,136)" stroke="rgb(126,129,136)" stroke-width="1.51"></path>
    <path d="M422,75L434,-15L265,-26Z" fill="rgb(151,154,162)" stroke="rgb(151,154,162)" stroke-width="1.51"></path>
    <path d="M602,252L543,75L384,252Z" fill="rgb(102,107,120)" stroke="rgb(102,107,120)" stroke-width="1.51"></path>
    <path d="M707,131L543,75L602,252Z" fill="rgb(107,112,125)" stroke="rgb(107,112,125)" stroke-width="1.51"></path>
    <path d="M774,378L695,271L566,422Z" fill="rgb(83,88,101)" stroke="rgb(83,88,101)" stroke-width="1.51"></path>
    <path d="M543,75L434,-15L422,75Z" fill="rgb(123,127,136)" stroke="rgb(123,127,136)" stroke-width="1.51"></path>
    <path d="M733,873L751,699L593,786Z" fill="rgb(31,37,48)" stroke="rgb(31,37,48)" stroke-width="1.51"></path>
    <path d="M718,578L774,378L566,422Z" fill="rgb(71,76,89)" stroke="rgb(71,76,89)" stroke-width="1.51"></path>
    <path d="M751,699L774,378L718,578Z" fill="rgb(59,65,77)" stroke="rgb(59,65,77)" stroke-width="1.51"></path>
    <path d="M48,-40L-31,-109L-30,76Z" fill="rgb(255,255,255)" stroke="rgb(255,255,255)" stroke-width="1.51"></path>
    <path d="M116,-252L-31,-109L48,-40Z" fill="rgb(244,246,251)" stroke="rgb(244,246,251)" stroke-width="1.51"></path>
    <path d="M116,-252L48,-40L265,-26Z" fill="rgb(218,221,227)" stroke="rgb(218,221,227)" stroke-width="1.51"></path>
    <path d="M400,1218L415,1020L241,1041Z" fill="rgb(41,47,59)" stroke="rgb(41,47,59)" stroke-width="1.51"></path>
    <path d="M415,1020L558,1049L583,907Z" fill="rgb(14,20,31)" stroke="rgb(14,20,31)" stroke-width="1.51"></path>
    <path d="M583,907L733,873L593,786Z" fill="rgb(22,28,40)" stroke="rgb(22,28,40)" stroke-width="1.51"></path>
    <path d="M774,378L707,131L695,271Z" fill="rgb(94,99,112)" stroke="rgb(94,99,112)" stroke-width="1.51"></path>
    <path d="M695,271L707,131L602,252Z" fill="rgb(99,104,117)" stroke="rgb(99,104,117)" stroke-width="1.51"></path>
    <path d="M543,75L545,-33L434,-15Z" fill="rgb(123,125,134)" stroke="rgb(123,125,134)" stroke-width="1.51"></path>
    <path d="M707,131L545,-33L543,75Z" fill="rgb(117,121,131)" stroke="rgb(117,121,131)" stroke-width="1.51"></path>
    <path d="M434,-15L424,-199L265,-26Z" fill="rgb(151,154,161)" stroke="rgb(151,154,161)" stroke-width="1.51"></path>
    <path d="M746,1058L733,873L583,907Z" fill="rgb(16,22,34)" stroke="rgb(16,22,34)" stroke-width="1.51"></path>
    <path d="M-210,931L-240,1108L-31,1075Z" fill="rgb(124,126,134)" stroke="rgb(124,126,134)" stroke-width="1.51">
    </path>
    <path d="M-31,1075L110,1257L133,1082Z" fill="rgb(108,114,126)" stroke="rgb(108,114,126)" stroke-width="1.51"></path>
    <path d="M-252,772L-240,1108L-210,931Z" fill="rgb(128,131,138)" stroke="rgb(128,131,138)" stroke-width="1.51">
    </path>
    <path d="M-31,-109L-279,-63L-30,76Z" fill="rgb(255,255,255)" stroke="rgb(255,255,255)" stroke-width="1.51"></path>
    <path d="M-233,102L-279,-63L-224,393Z" fill="rgb(237,240,246)" stroke="rgb(237,240,246)" stroke-width="1.51"></path>
    <path d="M133,1082L254,1262L241,1041Z" fill="rgb(75,81,93)" stroke="rgb(75,81,93)" stroke-width="1.51"></path>
    <path d="M-55,1246L110,1257L-31,1075Z" fill="rgb(122,125,133)" stroke="rgb(122,125,133)" stroke-width="1.51"></path>
    <path d="M254,1262L400,1218L241,1041Z" fill="rgb(54,60,72)" stroke="rgb(54,60,72)" stroke-width="1.51"></path>
    <path d="M558,1049L746,1058L583,907Z" fill="rgb(13,19,31)" stroke="rgb(13,19,31)" stroke-width="1.51"></path>
    <path d="M110,1257L254,1262L133,1082Z" fill="rgb(85,91,104)" stroke="rgb(85,91,104)" stroke-width="1.51"></path>
    <path d="M-228,1196L-55,1246L-31,1075Z" fill="rgb(124,126,134)" stroke="rgb(124,126,134)" stroke-width="1.51">
    </path>
    <path d="M577,-233L424,-199L545,-33Z" fill="rgb(124,126,134)" stroke="rgb(124,126,134)" stroke-width="1.51"></path>
    <path d="M545,-33L424,-199L434,-15Z" fill="rgb(128,131,138)" stroke="rgb(128,131,138)" stroke-width="1.51"></path>
    <path d="M-31,-109L-218,-171L-279,-63Z" fill="rgb(255,255,255)" stroke="rgb(255,255,255)" stroke-width="1.51">
    </path>
    <path d="M238,-261L116,-252L265,-26Z" fill="rgb(200,203,210)" stroke="rgb(200,203,210)" stroke-width="1.51"></path>
    <path d="M-240,1108L-228,1196L-31,1075Z" fill="rgb(124,126,134)" stroke="rgb(124,126,134)" stroke-width="1.51">
    </path>
    <path d="M-96,-256L-218,-171L-31,-109Z" fill="rgb(255,255,255)" stroke="rgb(255,255,255)" stroke-width="1.51">
    </path>
    <path d="M424,-199L238,-261L265,-26Z" fill="rgb(171,174,181)" stroke="rgb(171,174,181)" stroke-width="1.51"></path>
    <path d="M741,1269L585,1180L400,1218Z" fill="rgb(13,19,31)" stroke="rgb(13,19,31)" stroke-width="1.51"></path>
    <path d="M400,1218L585,1180L558,1049Z" fill="rgb(13,19,31)" stroke="rgb(13,19,31)" stroke-width="1.51"></path>
    <path d="M585,1180L746,1058L558,1049Z" fill="rgb(13,19,31)" stroke="rgb(13,19,31)" stroke-width="1.51"></path>
    <path d="M733,873L746,1058L751,699Z" fill="rgb(20,26,37)" stroke="rgb(20,26,37)" stroke-width="1.51"></path>
    <path d="M751,699L746,1058L774,378Z" fill="rgb(40,46,58)" stroke="rgb(40,46,58)" stroke-width="1.51"></path>
    <path d="M238,-261L-96,-256L116,-252Z" fill="rgb(233,236,242)" stroke="rgb(233,236,242)" stroke-width="1.51"></path>
    <path d="M116,-252L-96,-256L-31,-109Z" fill="rgb(255,255,255)" stroke="rgb(255,255,255)" stroke-width="1.51"></path>
    <path d="M707,131L765,-38L545,-33Z" fill="rgb(121,125,133)" stroke="rgb(121,125,133)" stroke-width="1.51"></path>
    <path d="M774,378L765,-38L707,131Z" fill="rgb(106,111,124)" stroke="rgb(106,111,124)" stroke-width="1.51"></path>
    <path d="M710,-206L577,-233L545,-33Z" fill="rgb(124,126,134)" stroke="rgb(124,126,134)" stroke-width="1.51"></path>
    <path d="M424,-199L577,-233L238,-261Z" fill="rgb(140,143,150)" stroke="rgb(140,143,150)" stroke-width="1.51"></path>
    <path d="M765,-38L710,-206L545,-33Z" fill="rgb(124,126,134)" stroke="rgb(124,126,134)" stroke-width="1.51"></path>
    <path d="M585,1180L741,1269L746,1058Z" fill="rgb(13,19,31)" stroke="rgb(13,19,31)" stroke-width="1.51"></path>
    <path d="M746,1058L741,1269L774,378Z" fill="rgb(18,24,36)" stroke="rgb(18,24,36)" stroke-width="1.51"></path>
    <path d="M254,1262L741,1269L400,1218Z" fill="rgb(17,23,34)" stroke="rgb(17,23,34)" stroke-width="1.51"></path>
</svg>