<svg xmlns="http://www.w3.org/2000/svg" viewBox="0 0 1920 1080">
    <path d="M1047,520L1095,686L1289,493Z" fill="rgb(109,115,127)" stroke="rgb(109,115,127)" stroke-width="1.51"></path>
    <path d="M1095,686L1314,752L1289,493Z" fill="rgb(93,99,111)" stroke="rgb(93,99,111)" stroke-width="1.51"></path>
    <path d="M1289,493L1091,337L1047,520Z" fill="rgb(123,129,141)" stroke="rgb(123,129,141)" stroke-width="1.51"></path>
    <path d="M1047,520L865,733L1095,686Z" fill="rgb(109,115,127)" stroke="rgb(109,115,127)" stroke-width="1.51"></path>
    <path d="M861,254L835,537L1047,520Z" fill="rgb(140,146,158)" stroke="rgb(140,146,158)" stroke-width="1.51"></path>
    <path d="M835,537L865,733L1047,520Z" fill="rgb(121,127,139)" stroke="rgb(121,127,139)" stroke-width="1.51"></path>
    <path d="M1095,686L1032,997L1314,752Z" fill="rgb(79,85,97)" stroke="rgb(79,85,97)" stroke-width="1.51"></path>
    <path d="M1289,493L1322,251L1091,337Z" fill="rgb(127,133,145)" stroke="rgb(127,133,145)" stroke-width="1.51"></path>
    <path d="M1538,498L1322,251L1289,493Z" fill="rgb(110,116,128)" stroke="rgb(110,116,128)" stroke-width="1.51"></path>
    <path d="M1314,752L1538,498L1289,493Z" fill="rgb(90,96,109)" stroke="rgb(90,96,109)" stroke-width="1.51"></path>
    <path d="M1091,337L861,254L1047,520Z" fill="rgb(142,148,160)" stroke="rgb(142,148,160)" stroke-width="1.51"></path>
    <path d="M1322,251L1109,191L1091,337Z" fill="rgb(142,149,161)" stroke="rgb(142,149,161)" stroke-width="1.51"></path>
    <path d="M1314,752L1523,746L1538,498Z" fill="rgb(75,81,93)" stroke="rgb(75,81,93)" stroke-width="1.51"></path>
    <path d="M1109,191L861,254L1091,337Z" fill="rgb(154,160,172)" stroke="rgb(154,160,172)" stroke-width="1.51"></path>
    <path d="M865,733L1032,997L1095,686Z" fill="rgb(89,95,107)" stroke="rgb(89,95,107)" stroke-width="1.51"></path>
    <path d="M1314,752L1470,923L1523,746Z" fill="rgb(60,66,78)" stroke="rgb(60,66,78)" stroke-width="1.51"></path>
    <path d="M1305,1059L1470,923L1314,752Z" fill="rgb(51,57,69)" stroke="rgb(51,57,69)" stroke-width="1.51"></path>
    <path d="M1538,498L1582,335L1322,251Z" fill="rgb(108,114,127)" stroke="rgb(108,114,127)" stroke-width="1.51"></path>
    <path d="M1700,332L1582,335L1538,498Z" fill="rgb(96,101,114)" stroke="rgb(96,101,114)" stroke-width="1.51"></path>
    <path d="M1322,251L1263,105L1109,191Z" fill="rgb(148,154,166)" stroke="rgb(148,154,166)" stroke-width="1.51"></path>
    <path d="M1109,191L809,189L861,254Z" fill="rgb(167,173,185)" stroke="rgb(167,173,185)" stroke-width="1.51"></path>
    <path d="M1445,164L1263,105L1322,251Z" fill="rgb(140,146,158)" stroke="rgb(140,146,158)" stroke-width="1.51"></path>
    <path d="M1582,335L1445,164L1322,251Z" fill="rgb(124,130,142)" stroke="rgb(124,130,142)" stroke-width="1.51"></path>
    <path d="M1032,997L1305,1059L1314,752Z" fill="rgb(58,64,76)" stroke="rgb(58,64,76)" stroke-width="1.51"></path>
    <path d="M865,733L808,1020L1032,997Z" fill="rgb(81,86,99)" stroke="rgb(81,86,99)" stroke-width="1.51"></path>
    <path d="M835,537L662,578L865,733Z" fill="rgb(127,133,145)" stroke="rgb(127,133,145)" stroke-width="1.51"></path>
    <path d="M643,400L662,578L835,537Z" fill="rgb(146,152,164)" stroke="rgb(146,152,164)" stroke-width="1.51"></path>
    <path d="M861,254L643,400L835,537Z" fill="rgb(155,161,173)" stroke="rgb(155,161,173)" stroke-width="1.51"></path>
    <path d="M1101,-78L809,189L1109,191Z" fill="rgb(173,178,190)" stroke="rgb(173,178,190)" stroke-width="1.51"></path>
    <path d="M1523,746L1692,762L1538,498Z" fill="rgb(66,72,84)" stroke="rgb(66,72,84)" stroke-width="1.51"></path>
    <path d="M1470,923L1692,762L1523,746Z" fill="rgb(50,56,68)" stroke="rgb(50,56,68)" stroke-width="1.51"></path>
    <path d="M1754,972L1692,762L1470,923Z" fill="rgb(35,41,53)" stroke="rgb(35,41,53)" stroke-width="1.51"></path>
    <path d="M1032,997L1213,1131L1305,1059Z" fill="rgb(53,58,71)" stroke="rgb(53,58,71)" stroke-width="1.51"></path>
    <path d="M1660,1259L1754,972L1470,923Z" fill="rgb(24,30,42)" stroke="rgb(24,30,42)" stroke-width="1.51"></path>
    <path d="M809,189L643,400L861,254Z" fill="rgb(169,175,187)" stroke="rgb(169,175,187)" stroke-width="1.51"></path>
    <path d="M662,578L680,837L865,733Z" fill="rgb(118,124,136)" stroke="rgb(118,124,136)" stroke-width="1.51"></path>
    <path d="M1032,997L1131,1227L1213,1131Z" fill="rgb(55,61,73)" stroke="rgb(55,61,73)" stroke-width="1.51"></path>
    <path d="M659,928L680,837L465,919Z" fill="rgb(102,108,120)" stroke="rgb(102,108,120)" stroke-width="1.51"></path>
    <path d="M1582,335L1759,186L1445,164Z" fill="rgb(114,120,132)" stroke="rgb(114,120,132)" stroke-width="1.51"></path>
    <path d="M1789,549L1700,332L1538,498Z" fill="rgb(82,88,100)" stroke="rgb(82,88,100)" stroke-width="1.51"></path>
    <path d="M680,837L808,1020L865,733Z" fill="rgb(95,101,113)" stroke="rgb(95,101,113)" stroke-width="1.51"></path>
    <path d="M1692,762L1789,549L1538,498Z" fill="rgb(66,72,84)" stroke="rgb(66,72,84)" stroke-width="1.51"></path>
    <path d="M448,601L680,837L662,578Z" fill="rgb(133,139,151)" stroke="rgb(133,139,151)" stroke-width="1.51"></path>
    <path d="M680,837L659,928L808,1020Z" fill="rgb(91,97,109)" stroke="rgb(91,97,109)" stroke-width="1.51"></path>
    <path d="M1263,105L1101,-78L1109,191Z" fill="rgb(165,170,180)" stroke="rgb(165,170,180)" stroke-width="1.51"></path>
    <path d="M1364,-183L1101,-78L1263,105Z" fill="rgb(167,170,177)" stroke="rgb(167,170,177)" stroke-width="1.51">
    </path>
    <path d="M1441,-109L1263,105L1445,164Z" fill="rgb(150,154,164)" stroke="rgb(150,154,164)" stroke-width="1.51">
    </path>
    <path d="M803,1143L1032,997L808,1020Z" fill="rgb(72,78,90)" stroke="rgb(72,78,90)" stroke-width="1.51"></path>
    <path d="M803,1143L1131,1227L1032,997Z" fill="rgb(64,70,82)" stroke="rgb(64,70,82)" stroke-width="1.51"></path>
    <path d="M1364,1410L1547,1270L1305,1059Z" fill="rgb(38,44,56)" stroke="rgb(38,44,56)" stroke-width="1.51"></path>
    <path d="M590,1175L803,1143L808,1020Z" fill="rgb(80,85,98)" stroke="rgb(80,85,98)" stroke-width="1.51"></path>
    <path d="M1700,332L1759,186L1582,335Z" fill="rgb(101,107,119)" stroke="rgb(101,107,119)" stroke-width="1.51"></path>
    <path d="M1918,313L1759,186L1700,332Z" fill="rgb(98,104,117)" stroke="rgb(98,104,117)" stroke-width="1.51"></path>
    <path d="M1692,762L1948,701L1789,549Z" fill="rgb(54,60,72)" stroke="rgb(54,60,72)" stroke-width="1.51"></path>
    <path d="M1547,1270L1470,923L1305,1059Z" fill="rgb(35,41,53)" stroke="rgb(35,41,53)" stroke-width="1.51"></path>
    <path d="M643,400L448,601L662,578Z" fill="rgb(152,158,170)" stroke="rgb(152,158,170)" stroke-width="1.51"></path>
    <path d="M399,251L448,601L643,400Z" fill="rgb(172,178,190)" stroke="rgb(172,178,190)" stroke-width="1.51"></path>
    <path d="M1632,-50L1441,-109L1445,164Z" fill="rgb(146,149,156)" stroke="rgb(146,149,156)" stroke-width="1.51">
    </path>
    <path d="M809,189L620,75L643,400Z" fill="rgb(182,188,200)" stroke="rgb(182,188,200)" stroke-width="1.51"></path>
    <path d="M772,-139L620,75L809,189Z" fill="rgb(200,204,212)" stroke="rgb(200,204,212)" stroke-width="1.51"></path>
    <path d="M1759,186L1632,-50L1445,164Z" fill="rgb(127,132,143)" stroke="rgb(127,132,143)" stroke-width="1.51"></path>
    <path d="M1483,-344L1364,-183L1441,-109Z" fill="rgb(152,155,162)" stroke="rgb(152,155,162)" stroke-width="1.51">
    </path>
    <path d="M1441,-109L1364,-183L1263,105Z" fill="rgb(158,161,168)" stroke="rgb(158,161,168)" stroke-width="1.51">
    </path>
    <path d="M1101,-78L772,-139L809,189Z" fill="rgb(193,196,202)" stroke="rgb(193,196,202)" stroke-width="1.51"></path>
    <path d="M1789,549L1918,313L1700,332Z" fill="rgb(85,91,103)" stroke="rgb(85,91,103)" stroke-width="1.51"></path>
    <path d="M1754,972L1948,701L1692,762Z" fill="rgb(39,45,57)" stroke="rgb(39,45,57)" stroke-width="1.51"></path>
    <path d="M1759,186L1935,23L1632,-50Z" fill="rgb(123,127,137)" stroke="rgb(123,127,137)" stroke-width="1.51"></path>
    <path d="M1986,567L1918,313L1789,549Z" fill="rgb(73,79,91)" stroke="rgb(73,79,91)" stroke-width="1.51"></path>
    <path d="M1364,1410L1305,1059L1213,1131Z" fill="rgb(45,51,63)" stroke="rgb(45,51,63)" stroke-width="1.51"></path>
    <path d="M1754,972L1952,988L1948,701Z" fill="rgb(27,33,45)" stroke="rgb(27,33,45)" stroke-width="1.51"></path>
    <path d="M448,601L465,919L680,837Z" fill="rgb(122,128,140)" stroke="rgb(122,128,140)" stroke-width="1.51"></path>
    <path d="M659,928L590,1175L808,1020Z" fill="rgb(85,91,103)" stroke="rgb(85,91,103)" stroke-width="1.51"></path>
    <path d="M1948,701L1986,567L1789,549Z" fill="rgb(59,65,77)" stroke="rgb(59,65,77)" stroke-width="1.51"></path>
    <path d="M851,-258L772,-139L1101,-78Z" fill="rgb(192,195,201)" stroke="rgb(192,195,201)" stroke-width="1.51"></path>
    <path d="M496,-69L456,175L620,75Z" fill="rgb(213,217,226)" stroke="rgb(213,217,226)" stroke-width="1.51"></path>
    <path d="M620,75L456,175L643,400Z" fill="rgb(191,197,209)" stroke="rgb(191,197,209)" stroke-width="1.51"></path>
    <path d="M465,919L590,1175L659,928Z" fill="rgb(93,99,112)" stroke="rgb(93,99,112)" stroke-width="1.51"></path>
    <path d="M803,1143L909,1390L1131,1227Z" fill="rgb(67,72,85)" stroke="rgb(67,72,85)" stroke-width="1.51"></path>
    <path d="M1131,1227L1364,1410L1213,1131Z" fill="rgb(48,54,66)" stroke="rgb(48,54,66)" stroke-width="1.51"></path>
    <path d="M1547,1270L1660,1259L1470,923Z" fill="rgb(27,33,45)" stroke="rgb(27,33,45)" stroke-width="1.51"></path>
    <path d="M456,175L399,251L643,400Z" fill="rgb(189,195,207)" stroke="rgb(189,195,207)" stroke-width="1.51"></path>
    <path d="M448,601L339,729L465,919Z" fill="rgb(134,140,152)" stroke="rgb(134,140,152)" stroke-width="1.51"></path>
    <path d="M362,1376L607,1412L590,1175Z" fill="rgb(93,98,111)" stroke="rgb(93,98,111)" stroke-width="1.51"></path>
    <path d="M196,615L339,729L448,601Z" fill="rgb(153,159,171)" stroke="rgb(153,159,171)" stroke-width="1.51"></path>
    <path d="M1547,1270L1546,1379L1660,1259Z" fill="rgb(26,32,44)" stroke="rgb(26,32,44)" stroke-width="1.51"></path>
    <path d="M1027,1460L1364,1410L1131,1227Z" fill="rgb(52,58,70)" stroke="rgb(52,58,70)" stroke-width="1.51"></path>
    <path d="M607,1412L909,1390L803,1143Z" fill="rgb(77,83,95)" stroke="rgb(77,83,95)" stroke-width="1.51"></path>
    <path d="M1364,-183L1222,-305L1101,-78Z" fill="rgb(168,171,178)" stroke="rgb(168,171,178)" stroke-width="1.51">
    </path>
    <path d="M1483,-344L1222,-305L1364,-183Z" fill="rgb(158,161,168)" stroke="rgb(158,161,168)" stroke-width="1.51">
    </path>
    <path d="M1894,1164L1952,988L1754,972Z" fill="rgb(17,23,34)" stroke="rgb(17,23,34)" stroke-width="1.51"></path>
    <path d="M2069,728L2082,568L1986,567Z" fill="rgb(57,62,75)" stroke="rgb(57,62,75)" stroke-width="1.51"></path>
    <path d="M1660,1259L1894,1164L1754,972Z" fill="rgb(17,23,35)" stroke="rgb(17,23,35)" stroke-width="1.51"></path>
    <path d="M1364,1410L1546,1379L1547,1270Z" fill="rgb(32,38,50)" stroke="rgb(32,38,50)" stroke-width="1.51"></path>
    <path d="M551,-128L496,-69L620,75Z" fill="rgb(217,220,226)" stroke="rgb(217,220,226)" stroke-width="1.51"></path>
    <path d="M1061,-320L851,-258L1101,-78Z" fill="rgb(185,188,194)" stroke="rgb(185,188,194)" stroke-width="1.51">
    </path>
    <path d="M909,1390L1027,1460L1131,1227Z" fill="rgb(62,67,80)" stroke="rgb(62,67,80)" stroke-width="1.51"></path>
    <path d="M1222,-305L1061,-320L1101,-78Z" fill="rgb(176,179,185)" stroke="rgb(176,179,185)" stroke-width="1.51">
    </path>
    <path d="M2069,728L1986,567L1948,701Z" fill="rgb(52,57,70)" stroke="rgb(52,57,70)" stroke-width="1.51"></path>
    <path d="M1986,567L2082,568L1918,313Z" fill="rgb(72,78,90)" stroke="rgb(72,78,90)" stroke-width="1.51"></path>
    <path d="M2070,895L2069,728L1948,701Z" fill="rgb(39,45,57)" stroke="rgb(39,45,57)" stroke-width="1.51"></path>
    <path d="M1952,988L2070,895L1948,701Z" fill="rgb(29,35,47)" stroke="rgb(29,35,47)" stroke-width="1.51"></path>
    <path d="M1795,1474L1894,1164L1660,1259Z" fill="rgb(17,23,34)" stroke="rgb(17,23,34)" stroke-width="1.51"></path>
    <path d="M551,-128L620,75L772,-139Z" fill="rgb(211,214,220)" stroke="rgb(211,214,220)" stroke-width="1.51"></path>
    <path d="M456,175L250,52L399,251Z" fill="rgb(212,218,230)" stroke="rgb(212,218,230)" stroke-width="1.51"></path>
    <path d="M1918,313L1935,23L1759,186Z" fill="rgb(107,113,126)" stroke="rgb(107,113,126)" stroke-width="1.51"></path>
    <path d="M1632,-50L1483,-344L1441,-109Z" fill="rgb(145,148,155)" stroke="rgb(145,148,155)" stroke-width="1.51">
    </path>
    <path d="M2009,-81L1935,23L2163,137Z" fill="rgb(121,124,133)" stroke="rgb(121,124,133)" stroke-width="1.51"></path>
    <path d="M629,-366L551,-128L772,-139Z" fill="rgb(210,213,219)" stroke="rgb(210,213,219)" stroke-width="1.51"></path>
    <path d="M2097,1178L2070,895L1952,988Z" fill="rgb(16,22,34)" stroke="rgb(16,22,34)" stroke-width="1.51"></path>
    <path d="M2069,728L2223,245L2082,568Z" fill="rgb(68,74,86)" stroke="rgb(68,74,86)" stroke-width="1.51"></path>
    <path d="M1684,-387L1483,-344L1632,-50Z" fill="rgb(138,141,149)" stroke="rgb(138,141,149)" stroke-width="1.51">
    </path>
    <path d="M1222,-305L1483,-344L1061,-320Z" fill="rgb(166,169,175)" stroke="rgb(166,169,175)" stroke-width="1.51">
    </path>
    <path d="M339,729L240,1032L465,919Z" fill="rgb(118,124,137)" stroke="rgb(118,124,137)" stroke-width="1.51"></path>
    <path d="M129,361L196,615L448,601Z" fill="rgb(174,180,192)" stroke="rgb(174,180,192)" stroke-width="1.51"></path>
    <path d="M129,361L448,601L399,251Z" fill="rgb(185,191,203)" stroke="rgb(185,191,203)" stroke-width="1.51"></path>
    <path d="M590,1175L607,1412L803,1143Z" fill="rgb(84,89,102)" stroke="rgb(84,89,102)" stroke-width="1.51"></path>
    <path d="M909,1390L607,1412L1027,1460Z" fill="rgb(72,78,91)" stroke="rgb(72,78,91)" stroke-width="1.51"></path>
    <path d="M334,1250L590,1175L465,919Z" fill="rgb(96,102,114)" stroke="rgb(96,102,114)" stroke-width="1.51"></path>
    <path d="M196,615L164,705L339,729Z" fill="rgb(155,161,173)" stroke="rgb(155,161,173)" stroke-width="1.51"></path>
    <path d="M164,705L240,1032L339,729Z" fill="rgb(135,141,153)" stroke="rgb(135,141,153)" stroke-width="1.51"></path>
    <path d="M1935,23L2009,-81L1632,-50Z" fill="rgb(126,129,136)" stroke="rgb(126,129,136)" stroke-width="1.51"></path>
    <path d="M2163,137L1935,23L1918,313Z" fill="rgb(107,113,126)" stroke="rgb(107,113,126)" stroke-width="1.51"></path>
    <path d="M496,-69L250,52L456,175Z" fill="rgb(222,226,235)" stroke="rgb(222,226,235)" stroke-width="1.51"></path>
    <path d="M196,615L23,604L164,705Z" fill="rgb(166,171,181)" stroke="rgb(166,171,181)" stroke-width="1.51"></path>
    <path d="M231,-62L250,52L496,-69Z" fill="rgb(233,236,242)" stroke="rgb(233,236,242)" stroke-width="1.51"></path>
    <path d="M250,52L129,361L399,251Z" fill="rgb(212,218,230)" stroke="rgb(212,218,230)" stroke-width="1.51"></path>
    <path d="M2223,245L1918,313L2082,568Z" fill="rgb(84,89,102)" stroke="rgb(84,89,102)" stroke-width="1.51"></path>
    <path d="M2223,245L2163,137L1918,313Z" fill="rgb(99,105,117)" stroke="rgb(99,105,117)" stroke-width="1.51"></path>
    <path d="M240,1032L334,1250L465,919Z" fill="rgb(104,109,122)" stroke="rgb(104,109,122)" stroke-width="1.51"></path>
    <path d="M1483,-344L1684,-387L1061,-320Z" fill="rgb(154,157,164)" stroke="rgb(154,157,164)" stroke-width="1.51">
    </path>
    <path d="M1912,-354L1684,-387L1632,-50Z" fill="rgb(130,133,140)" stroke="rgb(130,133,140)" stroke-width="1.51">
    </path>
    <path d="M388,-291L231,-62L496,-69Z" fill="rgb(230,233,239)" stroke="rgb(230,233,239)" stroke-width="1.51"></path>
    <path d="M851,-258L629,-366L772,-139Z" fill="rgb(203,206,213)" stroke="rgb(203,206,213)" stroke-width="1.51"></path>
    <path d="M1061,-320L629,-366L851,-258Z" fill="rgb(196,199,205)" stroke="rgb(196,199,205)" stroke-width="1.51">
    </path>
    <path d="M1684,-387L629,-366L1061,-320Z" fill="rgb(176,179,185)" stroke="rgb(176,179,185)" stroke-width="1.51">
    </path>
    <path d="M1546,1379L1795,1474L1660,1259Z" fill="rgb(21,27,38)" stroke="rgb(21,27,38)" stroke-width="1.51"></path>
    <path d="M1894,1164L2097,1178L1952,988Z" fill="rgb(13,19,31)" stroke="rgb(13,19,31)" stroke-width="1.51"></path>
    <path d="M1364,1410L1795,1474L1546,1379Z" fill="rgb(27,33,45)" stroke="rgb(27,33,45)" stroke-width="1.51"></path>
    <path d="M1027,1460L1795,1474L1364,1410Z" fill="rgb(38,44,56)" stroke="rgb(38,44,56)" stroke-width="1.51"></path>
    <path d="M2070,895L2223,245L2069,728Z" fill="rgb(57,62,75)" stroke="rgb(57,62,75)" stroke-width="1.51"></path>
    <path d="M2070,895L2217,1480L2223,245Z" fill="rgb(28,34,46)" stroke="rgb(28,34,46)" stroke-width="1.51"></path>
    <path d="M1998,1323L2097,1178L1894,1164Z" fill="rgb(13,19,31)" stroke="rgb(13,19,31)" stroke-width="1.51"></path>
    <path d="M1795,1474L1998,1323L1894,1164Z" fill="rgb(14,20,31)" stroke="rgb(14,20,31)" stroke-width="1.51"></path>
    <path d="M388,-291L496,-69L551,-128Z" fill="rgb(223,226,232)" stroke="rgb(223,226,232)" stroke-width="1.51"></path>
    <path d="M250,52L59,281L129,361Z" fill="rgb(218,223,232)" stroke="rgb(218,223,232)" stroke-width="1.51"></path>
    <path d="M334,1250L362,1376L590,1175Z" fill="rgb(98,104,117)" stroke="rgb(98,104,117)" stroke-width="1.51"></path>
    <path d="M253,1450L362,1376L334,1250Z" fill="rgb(105,111,123)" stroke="rgb(105,111,123)" stroke-width="1.51"></path>
    <path d="M240,1032L133,1131L334,1250Z" fill="rgb(110,115,128)" stroke="rgb(110,115,128)" stroke-width="1.51"></path>
    <path d="M164,705L-30,1004L240,1032Z" fill="rgb(129,133,143)" stroke="rgb(129,133,143)" stroke-width="1.51"></path>
    <path d="M129,361L23,604L196,615Z" fill="rgb(182,187,196)" stroke="rgb(182,187,196)" stroke-width="1.51"></path>
    <path d="M-201,399L23,604L129,361Z" fill="rgb(199,202,209)" stroke="rgb(199,202,209)" stroke-width="1.51"></path>
    <path d="M58,20L59,281L250,52Z" fill="rgb(234,237,246)" stroke="rgb(234,237,246)" stroke-width="1.51"></path>
    <path d="M23,604L20,726L164,705Z" fill="rgb(165,169,177)" stroke="rgb(165,169,177)" stroke-width="1.51"></path>
    <path d="M629,-366L388,-291L551,-128Z" fill="rgb(220,223,229)" stroke="rgb(220,223,229)" stroke-width="1.51"></path>
    <path d="M-30,1004L133,1131L240,1032Z" fill="rgb(118,123,133)" stroke="rgb(118,123,133)" stroke-width="1.51"></path>
    <path d="M2230,-30L2009,-81L2163,137Z" fill="rgb(123,125,134)" stroke="rgb(123,125,134)" stroke-width="1.51"></path>
    <path d="M2164,-304L1912,-354L2009,-81Z" fill="rgb(124,126,134)" stroke="rgb(124,126,134)" stroke-width="1.51">
    </path>
    <path d="M2009,-81L1912,-354L1632,-50Z" fill="rgb(126,129,137)" stroke="rgb(126,129,137)" stroke-width="1.51">
    </path>
    <path d="M2223,245L2230,-30L2163,137Z" fill="rgb(112,117,129)" stroke="rgb(112,117,129)" stroke-width="1.51"></path>
    <path d="M59,281L-201,399L129,361Z" fill="rgb(213,216,222)" stroke="rgb(213,216,222)" stroke-width="1.51"></path>
    <path d="M231,-62L58,20L250,52Z" fill="rgb(243,245,250)" stroke="rgb(243,245,250)" stroke-width="1.51"></path>
    <path d="M-59,-172L58,20L231,-62Z" fill="rgb(250,251,253)" stroke="rgb(250,251,253)" stroke-width="1.51"></path>
    <path d="M388,-291L275,-297L231,-62Z" fill="rgb(235,238,244)" stroke="rgb(235,238,244)" stroke-width="1.51"></path>
    <path d="M629,-366L275,-297L388,-291Z" fill="rgb(226,229,235)" stroke="rgb(226,229,235)" stroke-width="1.51"></path>
    <path d="M362,1376L253,1450L607,1412Z" fill="rgb(100,105,118)" stroke="rgb(100,105,118)" stroke-width="1.51"></path>
    <path d="M607,1412L253,1450L1027,1460Z" fill="rgb(86,91,104)" stroke="rgb(86,91,104)" stroke-width="1.51"></path>
    <path d="M1027,1460L-246,1491L1795,1474Z" fill="rgb(72,78,90)" stroke="rgb(72,78,90)" stroke-width="1.51"></path>
    <path d="M34,1390L253,1450L334,1250Z" fill="rgb(112,117,129)" stroke="rgb(112,117,129)" stroke-width="1.51"></path>
    <path d="M133,1131L34,1390L334,1250Z" fill="rgb(114,119,130)" stroke="rgb(114,119,130)" stroke-width="1.51"></path>
    <path d="M-30,1004L45,1169L133,1131Z" fill="rgb(121,124,133)" stroke="rgb(121,124,133)" stroke-width="1.51"></path>
    <path d="M20,726L-30,1004L164,705Z" fill="rgb(148,152,160)" stroke="rgb(148,152,160)" stroke-width="1.51"></path>
    <path d="M-221,792L-30,1004L20,726Z" fill="rgb(147,150,157)" stroke="rgb(147,150,157)" stroke-width="1.51"></path>
    <path d="M-221,792L20,726L23,604Z" fill="rgb(166,169,175)" stroke="rgb(166,169,175)" stroke-width="1.51"></path>
    <path d="M2230,-30L2164,-304L2009,-81Z" fill="rgb(124,126,134)" stroke="rgb(124,126,134)" stroke-width="1.51">
    </path>
    <path d="M1998,1323L2217,1480L2097,1178Z" fill="rgb(13,19,31)" stroke="rgb(13,19,31)" stroke-width="1.51"></path>
    <path d="M2097,1178L2217,1480L2070,895Z" fill="rgb(13,19,31)" stroke="rgb(13,19,31)" stroke-width="1.51"></path>
    <path d="M2223,245L2217,1480L2230,-30Z" fill="rgb(63,69,81)" stroke="rgb(63,69,81)" stroke-width="1.51"></path>
    <path d="M1795,1474L2217,1480L1998,1323Z" fill="rgb(13,19,31)" stroke="rgb(13,19,31)" stroke-width="1.51"></path>
    <path d="M-234,113L-201,399L59,281Z" fill="rgb(223,226,232)" stroke="rgb(223,226,232)" stroke-width="1.51"></path>
    <path d="M-201,399L-216,493L23,604Z" fill="rgb(193,196,203)" stroke="rgb(193,196,203)" stroke-width="1.51"></path>
    <path d="M-193,1243L45,1169L-30,1004Z" fill="rgb(124,126,134)" stroke="rgb(124,126,134)" stroke-width="1.51"></path>
    <path d="M-193,1243L34,1390L45,1169Z" fill="rgb(124,126,134)" stroke="rgb(124,126,134)" stroke-width="1.51"></path>
    <path d="M45,1169L34,1390L133,1131Z" fill="rgb(120,123,132)" stroke="rgb(120,123,132)" stroke-width="1.51"></path>
    <path d="M-216,493L-221,792L23,604Z" fill="rgb(176,179,186)" stroke="rgb(176,179,186)" stroke-width="1.51"></path>
    <path d="M275,-297L-59,-172L231,-62Z" fill="rgb(245,247,251)" stroke="rgb(245,247,251)" stroke-width="1.51"></path>
    <path d="M58,20L-234,113L59,281Z" fill="rgb(239,242,248)" stroke="rgb(239,242,248)" stroke-width="1.51"></path>
    <path d="M-216,493L-268,1029L-221,792Z" fill="rgb(157,160,167)" stroke="rgb(157,160,167)" stroke-width="1.51">
    </path>
    <path d="M-201,399L-234,113L-216,493Z" fill="rgb(214,217,224)" stroke="rgb(214,217,224)" stroke-width="1.51"></path>
    <path d="M-59,-172L-234,113L58,20Z" fill="rgb(255,255,255)" stroke="rgb(255,255,255)" stroke-width="1.51"></path>
    <path d="M-59,-172L-314,-112L-234,113Z" fill="rgb(255,255,255)" stroke="rgb(255,255,255)" stroke-width="1.51">
    </path>
    <path d="M275,-297L-8,-366L-59,-172Z" fill="rgb(250,251,253)" stroke="rgb(250,251,253)" stroke-width="1.51"></path>
    <path d="M629,-366L-8,-366L275,-297Z" fill="rgb(235,238,244)" stroke="rgb(235,238,244)" stroke-width="1.51"></path>
    <path d="M1684,-387L-8,-366L629,-366Z" fill="rgb(202,205,211)" stroke="rgb(202,205,211)" stroke-width="1.51"></path>
    <path d="M-221,792L-268,1029L-30,1004Z" fill="rgb(132,135,143)" stroke="rgb(132,135,143)" stroke-width="1.51">
    </path>
    <path d="M-314,-112L-268,1029L-216,493Z" fill="rgb(197,200,206)" stroke="rgb(197,200,206)" stroke-width="1.51">
    </path>
    <path d="M-268,1029L-193,1243L-30,1004Z" fill="rgb(124,126,134)" stroke="rgb(124,126,134)" stroke-width="1.51">
    </path>
    <path d="M-8,-366L-205,-237L-59,-172Z" fill="rgb(255,255,255)" stroke="rgb(255,255,255)" stroke-width="1.51"></path>
    <path d="M-234,113L-314,-112L-216,493Z" fill="rgb(236,239,245)" stroke="rgb(236,239,245)" stroke-width="1.51">
    </path>
    <path d="M-205,-237L-314,-112L-59,-172Z" fill="rgb(255,255,255)" stroke="rgb(255,255,255)" stroke-width="1.51">
    </path>
    <path d="M34,1390L-246,1491L253,1450Z" fill="rgb(123,126,134)" stroke="rgb(123,126,134)" stroke-width="1.51"></path>
    <path d="M253,1450L-246,1491L1027,1460Z" fill="rgb(103,109,122)" stroke="rgb(103,109,122)" stroke-width="1.51">
    </path>
    <path d="M1795,1474L-246,1491L2217,1480Z" fill="rgb(47,53,65)" stroke="rgb(47,53,65)" stroke-width="1.51"></path>
    <path d="M-193,1243L-246,1491L34,1390Z" fill="rgb(124,126,134)" stroke="rgb(124,126,134)" stroke-width="1.51">
    </path>
    <path d="M-268,1029L-246,1491L-193,1243Z" fill="rgb(124,126,134)" stroke="rgb(124,126,134)" stroke-width="1.51">
    </path>
</svg>