<svg xmlns="http://www.w3.org/2000/svg" viewBox="0 0 1920 1080">
        <path d="M1050,523L1091,696L1288,500Z" fill="rgb(126,132,144)" stroke="rgb(126,132,144)" stroke-width="1.51">
        </path>
        <path d="M1091,696L1309,753L1288,500Z" fill="rgb(113,119,131)" stroke="rgb(113,119,131)" stroke-width="1.51">
        </path>
        <path d="M1288,500L1088,335L1050,523Z" fill="rgb(139,145,157)" stroke="rgb(139,145,157)" stroke-width="1.51">
        </path>
        <path d="M1050,523L863,737L1091,696Z" fill="rgb(126,132,144)" stroke="rgb(126,132,144)" stroke-width="1.51">
        </path>
        <path d="M860,264L838,537L1050,523Z" fill="rgb(155,161,173)" stroke="rgb(155,161,173)" stroke-width="1.51">
        </path>
        <path d="M838,537L863,737L1050,523Z" fill="rgb(138,144,156)" stroke="rgb(138,144,156)" stroke-width="1.51">
        </path>
        <path d="M1091,696L1038,993L1309,753Z" fill="rgb(101,107,119)" stroke="rgb(101,107,119)" stroke-width="1.51">
        </path>
        <path d="M1288,500L1317,262L1088,335Z" fill="rgb(143,149,161)" stroke="rgb(143,149,161)" stroke-width="1.51">
        </path>
        <path d="M1533,504L1317,262L1288,500Z" fill="rgb(128,134,146)" stroke="rgb(128,134,146)" stroke-width="1.51">
        </path>
        <path d="M1309,753L1533,504L1288,500Z" fill="rgb(111,117,129)" stroke="rgb(111,117,129)" stroke-width="1.51">
        </path>
        <path d="M1309,753L1520,747L1533,504Z" fill="rgb(98,104,116)" stroke="rgb(98,104,116)" stroke-width="1.51">
        </path>
        <path d="M1088,335L860,264L1050,523Z" fill="rgb(157,163,175)" stroke="rgb(157,163,175)" stroke-width="1.51">
        </path>
        <path d="M1317,262L1103,179L1088,335Z" fill="rgb(158,164,176)" stroke="rgb(158,164,176)" stroke-width="1.51">
        </path>
        <path d="M863,737L1038,993L1091,696Z" fill="rgb(110,116,128)" stroke="rgb(110,116,128)" stroke-width="1.51">
        </path>
        <path d="M1309,753L1474,930L1520,747Z" fill="rgb(84,90,102)" stroke="rgb(84,90,102)" stroke-width="1.51"></path>
        <path d="M1103,179L860,264L1088,335Z" fill="rgb(167,173,185)" stroke="rgb(167,173,185)" stroke-width="1.51">
        </path>
        <path d="M1302,1046L1474,930L1309,753Z" fill="rgb(77,83,95)" stroke="rgb(77,83,95)" stroke-width="1.51"></path>
        <path d="M1533,504L1570,334L1317,262Z" fill="rgb(127,133,145)" stroke="rgb(127,133,145)" stroke-width="1.51">
        </path>
        <path d="M1317,262L1266,106L1103,179Z" fill="rgb(162,168,180)" stroke="rgb(162,168,180)" stroke-width="1.51">
        </path>
        <path d="M1702,331L1570,334L1533,504Z" fill="rgb(117,123,135)" stroke="rgb(117,123,135)" stroke-width="1.51">
        </path>
        <path d="M1038,993L1302,1046L1309,753Z" fill="rgb(83,89,101)" stroke="rgb(83,89,101)" stroke-width="1.51">
        </path>
        <path d="M1453,156L1266,106L1317,262Z" fill="rgb(155,161,173)" stroke="rgb(155,161,173)" stroke-width="1.51">
        </path>
        <path d="M1103,179L816,177L860,264Z" fill="rgb(178,184,196)" stroke="rgb(178,184,196)" stroke-width="1.51">
        </path>
        <path d="M1570,334L1453,156L1317,262Z" fill="rgb(141,147,159)" stroke="rgb(141,147,159)" stroke-width="1.51">
        </path>
        <path d="M838,537L658,573L863,737Z" fill="rgb(143,149,161)" stroke="rgb(143,149,161)" stroke-width="1.51">
        </path>
        <path d="M863,737L814,1013L1038,993Z" fill="rgb(103,109,121)" stroke="rgb(103,109,121)" stroke-width="1.51">
        </path>
        <path d="M642,389L658,573L838,537Z" fill="rgb(160,166,178)" stroke="rgb(160,166,178)" stroke-width="1.51">
        </path>
        <path d="M860,264L642,389L838,537Z" fill="rgb(167,173,185)" stroke="rgb(167,173,185)" stroke-width="1.51">
        </path>
        <path d="M1097,-83L816,177L1103,179Z" fill="rgb(185,190,199)" stroke="rgb(185,190,199)" stroke-width="1.51">
        </path>
        <path d="M1520,747L1696,761L1533,504Z" fill="rgb(89,95,107)" stroke="rgb(89,95,107)" stroke-width="1.51"></path>
        <path d="M1474,930L1696,761L1520,747Z" fill="rgb(76,82,94)" stroke="rgb(76,82,94)" stroke-width="1.51"></path>
        <path d="M1038,993L1223,1140L1302,1046Z" fill="rgb(70,76,88)" stroke="rgb(70,76,88)" stroke-width="1.51"></path>
        <path d="M1668,1248L1748,972L1474,930Z" fill="rgb(46,52,64)" stroke="rgb(46,52,64)" stroke-width="1.51"></path>
        <path d="M1474,930L1748,972L1696,761Z" fill="rgb(63,69,81)" stroke="rgb(63,69,81)" stroke-width="1.51"></path>
        <path d="M658,573L673,825L863,737Z" fill="rgb(136,142,154)" stroke="rgb(136,142,154)" stroke-width="1.51">
        </path>
        <path d="M1038,993L1122,1221L1223,1140Z" fill="rgb(71,77,89)" stroke="rgb(71,77,89)" stroke-width="1.51"></path>
        <path d="M673,825L814,1013L863,737Z" fill="rgb(117,122,135)" stroke="rgb(117,122,135)" stroke-width="1.51">
        </path>
        <path d="M458,927L655,934L673,825Z" fill="rgb(122,128,141)" stroke="rgb(122,128,141)" stroke-width="1.51">
        </path>
        <path d="M816,177L642,389L860,264Z" fill="rgb(181,187,199)" stroke="rgb(181,187,199)" stroke-width="1.51">
        </path>
        <path d="M1570,334L1753,174L1453,156Z" fill="rgb(134,140,152)" stroke="rgb(134,140,152)" stroke-width="1.51">
        </path>
        <path d="M1778,548L1702,331L1533,504Z" fill="rgb(105,111,123)" stroke="rgb(105,111,123)" stroke-width="1.51">
        </path>
        <path d="M1696,761L1778,548L1533,504Z" fill="rgb(91,97,109)" stroke="rgb(91,97,109)" stroke-width="1.51"></path>
        <path d="M443,592L673,825L658,573Z" fill="rgb(150,156,168)" stroke="rgb(150,156,168)" stroke-width="1.51">
        </path>
        <path d="M673,825L655,934L814,1013Z" fill="rgb(113,119,131)" stroke="rgb(113,119,131)" stroke-width="1.51">
        </path>
        <path d="M810,1150L1038,993L814,1013Z" fill="rgb(88,94,106)" stroke="rgb(88,94,106)" stroke-width="1.51"></path>
        <path d="M810,1150L1122,1221L1038,993Z" fill="rgb(79,85,97)" stroke="rgb(79,85,97)" stroke-width="1.51"></path>
        <path d="M1540,1258L1474,930L1302,1046Z" fill="rgb(54,60,72)" stroke="rgb(54,60,72)" stroke-width="1.51"></path>
        <path d="M1266,106L1097,-83L1103,179Z" fill="rgb(178,182,191)" stroke="rgb(178,182,191)" stroke-width="1.51">
        </path>
        <path d="M1352,-172L1097,-83L1266,106Z" fill="rgb(179,182,188)" stroke="rgb(179,182,188)" stroke-width="1.51">
        </path>
        <path d="M597,1177L810,1150L814,1013Z" fill="rgb(92,98,111)" stroke="rgb(92,98,111)" stroke-width="1.51"></path>
        <path d="M1696,761L1945,709L1778,548Z" fill="rgb(75,81,93)" stroke="rgb(75,81,93)" stroke-width="1.51"></path>
        <path d="M1540,1258L1302,1046L1223,1140Z" fill="rgb(59,64,77)" stroke="rgb(59,64,77)" stroke-width="1.51">
        </path>
        <path d="M1702,331L1753,174L1570,334Z" fill="rgb(122,128,141)" stroke="rgb(122,128,141)" stroke-width="1.51">
        </path>
        <path d="M1453,156L1450,-109L1266,106Z" fill="rgb(164,168,177)" stroke="rgb(164,168,177)" stroke-width="1.51">
        </path>
        <path d="M1920,315L1753,174L1702,331Z" fill="rgb(115,121,133)" stroke="rgb(115,121,133)" stroke-width="1.51">
        </path>
        <path d="M642,389L443,592L658,573Z" fill="rgb(166,172,184)" stroke="rgb(166,172,184)" stroke-width="1.51">
        </path>
        <path d="M402,261L443,592L642,389Z" fill="rgb(182,188,200)" stroke="rgb(182,188,200)" stroke-width="1.51">
        </path>
        <path d="M1644,-58L1450,-109L1453,156Z" fill="rgb(160,163,170)" stroke="rgb(160,163,170)" stroke-width="1.51">
        </path>
        <path d="M816,177L622,80L642,389Z" fill="rgb(192,198,210)" stroke="rgb(192,198,210)" stroke-width="1.51"></path>
        <path d="M783,-135L622,80L816,177Z" fill="rgb(207,210,219)" stroke="rgb(207,210,219)" stroke-width="1.51">
        </path>
        <path d="M1352,1409L1540,1258L1223,1140Z" fill="rgb(58,64,76)" stroke="rgb(58,64,76)" stroke-width="1.51">
        </path>
        <path d="M1450,-109L1352,-172L1266,106Z" fill="rgb(171,174,181)" stroke="rgb(171,174,181)" stroke-width="1.51">
        </path>
        <path d="M1097,-83L783,-135L816,177Z" fill="rgb(201,204,210)" stroke="rgb(201,204,210)" stroke-width="1.51">
        </path>
        <path d="M1778,548L1920,315L1702,331Z" fill="rgb(102,108,121)" stroke="rgb(102,108,121)" stroke-width="1.51">
        </path>
        <path d="M1748,972L1945,709L1696,761Z" fill="rgb(61,67,80)" stroke="rgb(61,67,80)" stroke-width="1.51"></path>
        <path d="M1949,985L1945,709L1748,972Z" fill="rgb(49,55,67)" stroke="rgb(49,55,67)" stroke-width="1.51"></path>
        <path d="M1753,174L1644,-58L1453,156Z" fill="rgb(145,149,159)" stroke="rgb(145,149,159)" stroke-width="1.51">
        </path>
        <path d="M1978,563L1920,315L1778,548Z" fill="rgb(88,94,107)" stroke="rgb(88,94,107)" stroke-width="1.51"></path>
        <path d="M1450,-109L1486,-341L1352,-172Z" fill="rgb(166,169,176)" stroke="rgb(166,169,176)" stroke-width="1.51">
        </path>
        <path d="M1935,35L1644,-58L1753,174Z" fill="rgb(137,141,150)" stroke="rgb(137,141,150)" stroke-width="1.51">
        </path>
        <path d="M351,733L458,927L673,825Z" fill="rgb(136,142,154)" stroke="rgb(136,142,154)" stroke-width="1.51">
        </path>
        <path d="M655,934L597,1177L814,1013Z" fill="rgb(100,106,118)" stroke="rgb(100,106,118)" stroke-width="1.51">
        </path>
        <path d="M1945,709L1978,563L1778,548Z" fill="rgb(75,81,93)" stroke="rgb(75,81,93)" stroke-width="1.51"></path>
        <path d="M851,-268L783,-135L1097,-83Z" fill="rgb(200,203,209)" stroke="rgb(200,203,209)" stroke-width="1.51">
        </path>
        <path d="M1540,1258L1668,1248L1474,930Z" fill="rgb(47,53,65)" stroke="rgb(47,53,65)" stroke-width="1.51"></path>
        <path d="M458,927L597,1177L655,934Z" fill="rgb(110,116,128)" stroke="rgb(110,116,128)" stroke-width="1.51">
        </path>
        <path d="M1033,1452L1352,1409L1122,1221Z" fill="rgb(69,75,87)" stroke="rgb(69,75,87)" stroke-width="1.51">
        </path>
        <path d="M1122,1221L1352,1409L1223,1140Z" fill="rgb(66,71,84)" stroke="rgb(66,71,84)" stroke-width="1.51">
        </path>
        <path d="M485,-75L451,165L622,80Z" fill="rgb(219,223,231)" stroke="rgb(219,223,231)" stroke-width="1.51"></path>
        <path d="M622,80L451,165L642,389Z" fill="rgb(200,206,218)" stroke="rgb(200,206,218)" stroke-width="1.51"></path>
        <path d="M197,604L351,733L443,592Z" fill="rgb(167,173,185)" stroke="rgb(167,173,185)" stroke-width="1.51">
        </path>
        <path d="M443,592L351,733L673,825Z" fill="rgb(150,156,168)" stroke="rgb(150,156,168)" stroke-width="1.51">
        </path>
        <path d="M451,165L402,261L642,389Z" fill="rgb(198,204,216)" stroke="rgb(198,204,216)" stroke-width="1.51">
        </path>
        <path d="M1540,1258L1539,1383L1668,1248Z" fill="rgb(45,51,63)" stroke="rgb(45,51,63)" stroke-width="1.51">
        </path>
        <path d="M900,1392L1122,1221L810,1150Z" fill="rgb(81,87,99)" stroke="rgb(81,87,99)" stroke-width="1.51"></path>
        <path d="M611,1411L900,1392L810,1150Z" fill="rgb(91,96,109)" stroke="rgb(91,96,109)" stroke-width="1.51"></path>
        <path d="M1899,1167L1949,985L1748,972Z" fill="rgb(33,39,51)" stroke="rgb(33,39,51)" stroke-width="1.51"></path>
        <path d="M1945,709L2080,732L1978,563Z" fill="rgb(68,74,86)" stroke="rgb(68,74,86)" stroke-width="1.51"></path>
        <path d="M1668,1248L1899,1167L1748,972Z" fill="rgb(34,40,52)" stroke="rgb(34,40,52)" stroke-width="1.51"></path>
        <path d="M1352,1409L1539,1383L1540,1258Z" fill="rgb(52,57,70)" stroke="rgb(52,57,70)" stroke-width="1.51">
        </path>
        <path d="M900,1392L1033,1452L1122,1221Z" fill="rgb(77,83,95)" stroke="rgb(77,83,95)" stroke-width="1.51"></path>
        <path d="M1352,-172L1231,-308L1097,-83Z" fill="rgb(179,182,189)" stroke="rgb(179,182,189)" stroke-width="1.51">
        </path>
        <path d="M1486,-341L1231,-308L1352,-172Z" fill="rgb(171,174,181)" stroke="rgb(171,174,181)" stroke-width="1.51">
        </path>
        <path d="M1231,-308L1062,-320L1097,-83Z" fill="rgb(186,189,195)" stroke="rgb(186,189,195)" stroke-width="1.51">
        </path>
        <path d="M1062,-320L851,-268L1097,-83Z" fill="rgb(194,197,203)" stroke="rgb(194,197,203)" stroke-width="1.51">
        </path>
        <path d="M783,-135L563,-125L622,80Z" fill="rgb(216,219,225)" stroke="rgb(216,219,225)" stroke-width="1.51">
        </path>
        <path d="M2081,906L2080,732L1945,709Z" fill="rgb(57,63,75)" stroke="rgb(57,63,75)" stroke-width="1.51"></path>
        <path d="M1978,563L2092,564L1920,315Z" fill="rgb(86,92,104)" stroke="rgb(86,92,104)" stroke-width="1.51"></path>
        <path d="M2080,732L2092,564L1978,563Z" fill="rgb(72,78,91)" stroke="rgb(72,78,91)" stroke-width="1.51"></path>
        <path d="M1949,985L2081,906L1945,709Z" fill="rgb(48,54,66)" stroke="rgb(48,54,66)" stroke-width="1.51"></path>
        <path d="M1783,1464L1899,1167L1668,1248Z" fill="rgb(34,40,52)" stroke="rgb(34,40,52)" stroke-width="1.51">
        </path>
        <path d="M1920,315L1935,35L1753,174Z" fill="rgb(119,125,138)" stroke="rgb(119,125,138)" stroke-width="1.51">
        </path>
        <path d="M1644,-58L1486,-341L1450,-109Z" fill="rgb(159,162,169)" stroke="rgb(159,162,169)" stroke-width="1.51">
        </path>
        <path d="M2160,133L1935,35L1920,315Z" fill="rgb(117,123,136)" stroke="rgb(117,123,136)" stroke-width="1.51">
        </path>
        <path d="M630,-360L563,-125L783,-135Z" fill="rgb(216,219,225)" stroke="rgb(216,219,225)" stroke-width="1.51">
        </path>
        <path d="M243,60L140,355L402,261Z" fill="rgb(217,223,235)" stroke="rgb(217,223,235)" stroke-width="1.51"></path>
        <path d="M563,-125L485,-75L622,80Z" fill="rgb(222,225,231)" stroke="rgb(222,225,231)" stroke-width="1.51">
        </path>
        <path d="M2104,1179L2081,906L1949,985Z" fill="rgb(32,38,50)" stroke="rgb(32,38,50)" stroke-width="1.51"></path>
        <path d="M2080,732L2212,257L2092,564Z" fill="rgb(82,88,101)" stroke="rgb(82,88,101)" stroke-width="1.51"></path>
        <path d="M1688,-378L1486,-341L1644,-58Z" fill="rgb(154,157,164)" stroke="rgb(154,157,164)" stroke-width="1.51">
        </path>
        <path d="M1231,-308L1486,-341L1062,-320Z" fill="rgb(177,180,187)" stroke="rgb(177,180,187)" stroke-width="1.51">
        </path>
        <path d="M351,733L234,1024L458,927Z" fill="rgb(136,142,155)" stroke="rgb(136,142,155)" stroke-width="1.51">
        </path>
        <path d="M371,1380L611,1411L597,1177Z" fill="rgb(104,110,123)" stroke="rgb(104,110,123)" stroke-width="1.51">
        </path>
        <path d="M140,355L197,604L443,592Z" fill="rgb(185,191,203)" stroke="rgb(185,191,203)" stroke-width="1.51">
        </path>
        <path d="M140,355L443,592L402,261Z" fill="rgb(194,200,212)" stroke="rgb(194,200,212)" stroke-width="1.51">
        </path>
        <path d="M597,1177L611,1411L810,1150Z" fill="rgb(96,102,115)" stroke="rgb(96,102,115)" stroke-width="1.51">
        </path>
        <path d="M900,1392L611,1411L1033,1452Z" fill="rgb(87,92,105)" stroke="rgb(87,92,105)" stroke-width="1.51">
        </path>
        <path d="M346,1241L597,1177L458,927Z" fill="rgb(107,113,126)" stroke="rgb(107,113,126)" stroke-width="1.51">
        </path>
        <path d="M197,604L170,713L351,733Z" fill="rgb(168,173,185)" stroke="rgb(168,173,185)" stroke-width="1.51">
        </path>
        <path d="M170,713L234,1024L351,733Z" fill="rgb(151,156,168)" stroke="rgb(151,156,168)" stroke-width="1.51">
        </path>
        <path d="M234,1024L346,1241L458,927Z" fill="rgb(115,121,134)" stroke="rgb(115,121,134)" stroke-width="1.51">
        </path>
        <path d="M1935,35L1997,-85L1644,-58Z" fill="rgb(136,139,146)" stroke="rgb(136,139,146)" stroke-width="1.51">
        </path>
        <path d="M2160,133L1997,-85L1935,35Z" fill="rgb(129,132,141)" stroke="rgb(129,132,141)" stroke-width="1.51">
        </path>
        <path d="M243,60L402,261L451,165Z" fill="rgb(217,223,235)" stroke="rgb(217,223,235)" stroke-width="1.51"></path>
        <path d="M197,604L18,595L170,713Z" fill="rgb(179,183,193)" stroke="rgb(179,183,193)" stroke-width="1.51"></path>
        <path d="M1539,1383L1783,1464L1668,1248Z" fill="rgb(41,47,59)" stroke="rgb(41,47,59)" stroke-width="1.51">
        </path>
        <path d="M1899,1167L2104,1179L1949,985Z" fill="rgb(26,32,44)" stroke="rgb(26,32,44)" stroke-width="1.51"></path>
        <path d="M1352,1409L1783,1464L1539,1383Z" fill="rgb(47,53,65)" stroke="rgb(47,53,65)" stroke-width="1.51">
        </path>
        <path d="M1033,1452L1783,1464L1352,1409Z" fill="rgb(57,63,75)" stroke="rgb(57,63,75)" stroke-width="1.51">
        </path>
        <path d="M227,-68L243,60L485,-75Z" fill="rgb(237,240,246)" stroke="rgb(237,240,246)" stroke-width="1.51"></path>
        <path d="M485,-75L243,60L451,165Z" fill="rgb(227,231,239)" stroke="rgb(227,231,239)" stroke-width="1.51"></path>
        <path d="M2212,257L1920,315L2092,564Z" fill="rgb(96,102,115)" stroke="rgb(96,102,115)" stroke-width="1.51">
        </path>
        <path d="M2212,257L2160,133L1920,315Z" fill="rgb(110,116,129)" stroke="rgb(110,116,129)" stroke-width="1.51">
        </path>
        <path d="M2081,906L2212,257L2080,732Z" fill="rgb(72,77,90)" stroke="rgb(72,77,90)" stroke-width="1.51"></path>
        <path d="M1486,-341L1688,-378L1062,-320Z" fill="rgb(167,170,177)" stroke="rgb(167,170,177)" stroke-width="1.51">
        </path>
        <path d="M1914,-349L1688,-378L1644,-58Z" fill="rgb(144,147,154)" stroke="rgb(144,147,154)" stroke-width="1.51">
        </path>
        <path d="M563,-125L393,-296L485,-75Z" fill="rgb(227,230,236)" stroke="rgb(227,230,236)" stroke-width="1.51">
        </path>
        <path d="M851,-268L630,-360L783,-135Z" fill="rgb(210,213,219)" stroke="rgb(210,213,219)" stroke-width="1.51">
        </path>
        <path d="M1062,-320L630,-360L851,-268Z" fill="rgb(204,207,213)" stroke="rgb(204,207,213)" stroke-width="1.51">
        </path>
        <path d="M1688,-378L630,-360L1062,-320Z" fill="rgb(186,189,195)" stroke="rgb(186,189,195)" stroke-width="1.51">
        </path>
        <path d="M2081,906L2207,1469L2212,257Z" fill="rgb(47,53,65)" stroke="rgb(47,53,65)" stroke-width="1.51"></path>
        <path d="M1988,1335L2104,1179L1899,1167Z" fill="rgb(26,32,44)" stroke="rgb(26,32,44)" stroke-width="1.51">
        </path>
        <path d="M1783,1464L1988,1335L1899,1167Z" fill="rgb(27,33,45)" stroke="rgb(27,33,45)" stroke-width="1.51">
        </path>
        <path d="M346,1241L371,1380L597,1177Z" fill="rgb(109,114,127)" stroke="rgb(109,114,127)" stroke-width="1.51">
        </path>
        <path d="M246,1443L371,1380L346,1241Z" fill="rgb(115,121,133)" stroke="rgb(115,121,133)" stroke-width="1.51">
        </path>
        <path d="M393,-296L227,-68L485,-75Z" fill="rgb(234,237,243)" stroke="rgb(234,237,243)" stroke-width="1.51">
        </path>
        <path d="M243,60L49,287L140,355Z" fill="rgb(223,227,236)" stroke="rgb(223,227,236)" stroke-width="1.51"></path>
        <path d="M234,1024L144,1139L346,1241Z" fill="rgb(119,125,137)" stroke="rgb(119,125,137)" stroke-width="1.51">
        </path>
        <path d="M170,713L-28,999L234,1024Z" fill="rgb(147,151,160)" stroke="rgb(147,151,160)" stroke-width="1.51">
        </path>
        <path d="M140,355L18,595L197,604Z" fill="rgb(193,197,206)" stroke="rgb(193,197,206)" stroke-width="1.51"></path>
        <path d="M49,287L18,595L140,355Z" fill="rgb(207,211,219)" stroke="rgb(207,211,219)" stroke-width="1.51"></path>
        <path d="M48,33L49,287L243,60Z" fill="rgb(236,239,247)" stroke="rgb(236,239,247)" stroke-width="1.51"></path>
        <path d="M18,595L15,730L170,713Z" fill="rgb(177,181,189)" stroke="rgb(177,181,189)" stroke-width="1.51"></path>
        <path d="M-28,999L144,1139L234,1024Z" fill="rgb(129,133,142)" stroke="rgb(129,133,142)" stroke-width="1.51">
        </path>
        <path d="M630,-360L393,-296L563,-125Z" fill="rgb(224,227,233)" stroke="rgb(224,227,233)" stroke-width="1.51">
        </path>
        <path d="M2161,-307L1914,-349L1997,-85Z" fill="rgb(132,134,142)" stroke="rgb(132,134,142)" stroke-width="1.51">
        </path>
        <path d="M1997,-85L1914,-349L1644,-58Z" fill="rgb(136,139,147)" stroke="rgb(136,139,147)" stroke-width="1.51">
        </path>
        <path d="M2160,133L2218,-41L1997,-85Z" fill="rgb(132,134,142)" stroke="rgb(132,134,142)" stroke-width="1.51">
        </path>
        <path d="M2212,257L2218,-41L2160,133Z" fill="rgb(121,126,138)" stroke="rgb(121,126,138)" stroke-width="1.51">
        </path>
        <path d="M49,287L-205,388L18,595Z" fill="rgb(210,213,219)" stroke="rgb(210,213,219)" stroke-width="1.51"></path>
        <path d="M227,-68L48,33L243,60Z" fill="rgb(244,246,251)" stroke="rgb(244,246,251)" stroke-width="1.51"></path>
        <path d="M-52,-163L48,33L227,-68Z" fill="rgb(251,251,253)" stroke="rgb(251,251,253)" stroke-width="1.51"></path>
        <path d="M371,1380L246,1443L611,1411Z" fill="rgb(110,116,129)" stroke="rgb(110,116,129)" stroke-width="1.51">
        </path>
        <path d="M611,1411L246,1443L1033,1452Z" fill="rgb(98,104,117)" stroke="rgb(98,104,117)" stroke-width="1.51">
        </path>
        <path d="M1033,1452L-244,1478L1783,1464Z" fill="rgb(86,92,104)" stroke="rgb(86,92,104)" stroke-width="1.51">
        </path>
        <path d="M144,1139L246,1443L346,1241Z" fill="rgb(119,125,137)" stroke="rgb(119,125,137)" stroke-width="1.51">
        </path>
        <path d="M393,-296L264,-301L227,-68Z" fill="rgb(238,241,247)" stroke="rgb(238,241,247)" stroke-width="1.51">
        </path>
        <path d="M630,-360L264,-301L393,-296Z" fill="rgb(230,233,239)" stroke="rgb(230,233,239)" stroke-width="1.51">
        </path>
        <path d="M144,1139L28,1392L246,1443Z" fill="rgb(124,129,139)" stroke="rgb(124,129,139)" stroke-width="1.51">
        </path>
        <path d="M15,730L-28,999L170,713Z" fill="rgb(162,166,174)" stroke="rgb(162,166,174)" stroke-width="1.51"></path>
        <path d="M-222,787L-28,999L15,730Z" fill="rgb(162,165,172)" stroke="rgb(162,165,172)" stroke-width="1.51">
        </path>
        <path d="M-222,787L15,730L18,595Z" fill="rgb(178,181,187)" stroke="rgb(178,181,187)" stroke-width="1.51"></path>
        <path d="M-28,999L37,1172L144,1139Z" fill="rgb(129,132,141)" stroke="rgb(129,132,141)" stroke-width="1.51">
        </path>
        <path d="M2218,-41L2161,-307L1997,-85Z" fill="rgb(132,134,142)" stroke="rgb(132,134,142)" stroke-width="1.51">
        </path>
        <path d="M1988,1335L2207,1469L2104,1179Z" fill="rgb(26,32,44)" stroke="rgb(26,32,44)" stroke-width="1.51">
        </path>
        <path d="M2104,1179L2207,1469L2081,906Z" fill="rgb(26,32,44)" stroke="rgb(26,32,44)" stroke-width="1.51"></path>
        <path d="M2212,257L2207,1469L2218,-41Z" fill="rgb(78,84,97)" stroke="rgb(78,84,97)" stroke-width="1.51"></path>
        <path d="M1783,1464L2207,1469L1988,1335Z" fill="rgb(26,32,44)" stroke="rgb(26,32,44)" stroke-width="1.51">
        </path>
        <path d="M-233,112L-205,388L49,287Z" fill="rgb(228,231,237)" stroke="rgb(228,231,237)" stroke-width="1.51">
        </path>
        <path d="M-233,112L49,287L48,33Z" fill="rgb(240,243,249)" stroke="rgb(240,243,249)" stroke-width="1.51"></path>
        <path d="M-205,388L-218,499L18,595Z" fill="rgb(202,205,211)" stroke="rgb(202,205,211)" stroke-width="1.51">
        </path>
        <path d="M-198,1235L28,1392L37,1172Z" fill="rgb(132,134,142)" stroke="rgb(132,134,142)" stroke-width="1.51">
        </path>
        <path d="M-198,1235L37,1172L-28,999Z" fill="rgb(132,134,142)" stroke="rgb(132,134,142)" stroke-width="1.51">
        </path>
        <path d="M37,1172L28,1392L144,1139Z" fill="rgb(128,132,141)" stroke="rgb(128,132,141)" stroke-width="1.51">
        </path>
        <path d="M-218,499L-222,787L18,595Z" fill="rgb(187,190,196)" stroke="rgb(187,190,196)" stroke-width="1.51">
        </path>
        <path d="M264,-301L-52,-163L227,-68Z" fill="rgb(246,248,251)" stroke="rgb(246,248,251)" stroke-width="1.51">
        </path>
        <path d="M-218,499L-262,1021L-222,787Z" fill="rgb(171,174,180)" stroke="rgb(171,174,180)" stroke-width="1.51">
        </path>
        <path d="M-205,388L-233,112L-218,499Z" fill="rgb(220,223,229)" stroke="rgb(220,223,229)" stroke-width="1.51">
        </path>
        <path d="M-52,-163L-233,112L48,33Z" fill="rgb(255,255,255)" stroke="rgb(255,255,255)" stroke-width="1.51">
        </path>
        <path d="M-222,787L-262,1021L-28,999Z" fill="rgb(150,153,160)" stroke="rgb(150,153,160)" stroke-width="1.51">
        </path>
        <path d="M-302,-112L-262,1021L-218,499Z" fill="rgb(205,208,214)" stroke="rgb(205,208,214)" stroke-width="1.51">
        </path>
        <path d="M-52,-163L-302,-112L-233,112Z" fill="rgb(255,255,255)" stroke="rgb(255,255,255)" stroke-width="1.51">
        </path>
        <path d="M264,-301L-8,-360L-52,-163Z" fill="rgb(251,252,254)" stroke="rgb(251,252,254)" stroke-width="1.51">
        </path>
        <path d="M630,-360L-8,-360L264,-301Z" fill="rgb(238,241,247)" stroke="rgb(238,241,247)" stroke-width="1.51">
        </path>
        <path d="M1688,-378L-8,-360L630,-360Z" fill="rgb(209,212,218)" stroke="rgb(209,212,218)" stroke-width="1.51">
        </path>
        <path d="M-262,1021L-198,1235L-28,999Z" fill="rgb(132,134,142)" stroke="rgb(132,134,142)" stroke-width="1.51">
        </path>
        <path d="M-8,-360L-209,-249L-52,-163Z" fill="rgb(255,255,255)" stroke="rgb(255,255,255)" stroke-width="1.51">
        </path>
        <path d="M-233,112L-302,-112L-218,499Z" fill="rgb(238,241,247)" stroke="rgb(238,241,247)" stroke-width="1.51">
        </path>
        <path d="M-209,-249L-302,-112L-52,-163Z" fill="rgb(255,255,255)" stroke="rgb(255,255,255)" stroke-width="1.51">
        </path>
        <path d="M28,1392L-244,1478L246,1443Z" fill="rgb(131,134,142)" stroke="rgb(131,134,142)" stroke-width="1.51">
        </path>
        <path d="M246,1443L-244,1478L1033,1452Z" fill="rgb(114,119,132)" stroke="rgb(114,119,132)" stroke-width="1.51">
        </path>
        <path d="M1783,1464L-244,1478L2207,1469Z" fill="rgb(65,70,83)" stroke="rgb(65,70,83)" stroke-width="1.51">
        </path>
        <path d="M-198,1235L-244,1478L28,1392Z" fill="rgb(132,134,142)" stroke="rgb(132,134,142)" stroke-width="1.51">
        </path>
        <path d="M-262,1021L-244,1478L-198,1235Z" fill="rgb(132,134,142)" stroke="rgb(132,134,142)" stroke-width="1.51">
        </path>
    </svg>