<svg xmlns="http://www.w3.org/2000/svg" viewBox="0 0 500 1000">
    <path d="M159,550L19,543L138,636Z" fill="rgb(152,158,170)" stroke="rgb(152,158,170)" stroke-width="1.51"></path>
    <path d="M19,543L16,650L138,636Z" fill="rgb(159,165,176)" stroke="rgb(159,165,176)" stroke-width="1.51"></path>
    <path d="M138,636L280,652L159,550Z" fill="rgb(124,130,142)" stroke="rgb(124,130,142)" stroke-width="1.51"></path>
    <path d="M189,880L280,652L138,636Z" fill="rgb(107,113,125)" stroke="rgb(107,113,125)" stroke-width="1.51"></path>
    <path d="M159,550L115,355L19,543Z" fill="rgb(166,172,185)" stroke="rgb(166,172,185)" stroke-width="1.51"></path>
    <path d="M353,541L115,355L159,550Z" fill="rgb(138,144,156)" stroke="rgb(138,144,156)" stroke-width="1.51"></path>
    <path d="M280,652L353,541L159,550Z" fill="rgb(110,116,128)" stroke="rgb(110,116,128)" stroke-width="1.51"></path>
    <path d="M19,543L-171,694L16,650Z" fill="rgb(170,173,179)" stroke="rgb(170,173,179)" stroke-width="1.51"></path>
    <path d="M-157,380L-167,468L19,543Z" fill="rgb(193,196,202)" stroke="rgb(193,196,202)" stroke-width="1.51"></path>
    <path d="M115,355L43,301L19,543Z" fill="rgb(188,193,205)" stroke="rgb(188,193,205)" stroke-width="1.51"></path>
    <path d="M-167,468L-171,694L19,543Z" fill="rgb(178,181,188)" stroke="rgb(178,181,188)" stroke-width="1.51"></path>
    <path d="M16,650L-17,861L138,636Z" fill="rgb(146,151,162)" stroke="rgb(146,151,162)" stroke-width="1.51"></path>
    <path d="M-171,694L-17,861L16,650Z" fill="rgb(154,157,164)" stroke="rgb(154,157,164)" stroke-width="1.51"></path>
    <path d="M43,301L-157,380L19,543Z" fill="rgb(201,204,210)" stroke="rgb(201,204,210)" stroke-width="1.51"></path>
    <path d="M-17,861L189,880L138,636Z" fill="rgb(120,126,139)" stroke="rgb(120,126,139)" stroke-width="1.51"></path>
    <path d="M280,652L534,724L353,541Z" fill="rgb(69,75,87)" stroke="rgb(69,75,87)" stroke-width="1.51"></path>
    <path d="M189,880L365,804L280,652Z" fill="rgb(80,86,98)" stroke="rgb(80,86,98)" stroke-width="1.51"></path>
    <path d="M115,355L196,122L43,301Z" fill="rgb(191,197,210)" stroke="rgb(191,197,210)" stroke-width="1.51"></path>
    <path d="M353,541L320,280L115,355Z" fill="rgb(135,141,153)" stroke="rgb(135,141,153)" stroke-width="1.51"></path>
    <path d="M189,880L277,1052L365,804Z" fill="rgb(64,70,82)" stroke="rgb(64,70,82)" stroke-width="1.51"></path>
    <path d="M-17,861L117,971L189,880Z" fill="rgb(108,113,126)" stroke="rgb(108,113,126)" stroke-width="1.51"></path>
    <path d="M-17,861L33,997L117,971Z" fill="rgb(117,122,134)" stroke="rgb(117,122,134)" stroke-width="1.51"></path>
    <path d="M-171,694L-202,878L-17,861Z" fill="rgb(142,144,152)" stroke="rgb(142,144,152)" stroke-width="1.51"></path>
    <path d="M-167,468L-202,878L-171,694Z" fill="rgb(162,165,172)" stroke="rgb(162,165,172)" stroke-width="1.51"></path>
    <path d="M-151,1047L33,997L-17,861Z" fill="rgb(126,129,136)" stroke="rgb(126,129,136)" stroke-width="1.51"></path>
    <path d="M353,541L510,381L320,280Z" fill="rgb(97,103,115)" stroke="rgb(97,103,115)" stroke-width="1.51"></path>
    <path d="M534,724L522,526L353,541Z" fill="rgb(57,63,75)" stroke="rgb(57,63,75)" stroke-width="1.51"></path>
    <path d="M320,280L196,122L115,355Z" fill="rgb(168,174,186)" stroke="rgb(168,174,186)" stroke-width="1.51"></path>
    <path d="M510,381L359,205L320,280Z" fill="rgb(110,116,129)" stroke="rgb(110,116,129)" stroke-width="1.51"></path>
    <path d="M522,526L510,381L353,541Z" fill="rgb(72,78,91)" stroke="rgb(72,78,91)" stroke-width="1.51"></path>
    <path d="M359,205L196,122L320,280Z" fill="rgb(152,158,170)" stroke="rgb(152,158,170)" stroke-width="1.51"></path>
    <path d="M43,301L-179,163L-157,380Z" fill="rgb(219,222,228)" stroke="rgb(219,222,228)" stroke-width="1.51"></path>
    <path d="M365,804L534,724L280,652Z" fill="rgb(57,63,75)" stroke="rgb(57,63,75)" stroke-width="1.51"></path>
    <path d="M520,810L534,724L365,804Z" fill="rgb(35,41,53)" stroke="rgb(35,41,53)" stroke-width="1.51"></path>
    <path d="M196,122L42,101L43,301Z" fill="rgb(209,215,227)" stroke="rgb(209,215,227)" stroke-width="1.51"></path>
    <path d="M474,1001L520,810L365,804Z" fill="rgb(25,31,43)" stroke="rgb(25,31,43)" stroke-width="1.51"></path>
    <path d="M42,101L-179,163L43,301Z" fill="rgb(231,234,240)" stroke="rgb(231,234,240)" stroke-width="1.51"></path>
    <path d="M-157,380L-179,163L-167,468Z" fill="rgb(211,214,220)" stroke="rgb(211,214,220)" stroke-width="1.51"></path>
    <path d="M-167,468L-233,-13L-202,878Z" fill="rgb(196,199,205)" stroke="rgb(196,199,205)" stroke-width="1.51"></path>
    <path d="M117,971L277,1052L189,880Z" fill="rgb(81,87,99)" stroke="rgb(81,87,99)" stroke-width="1.51"></path>
    <path d="M198,1211L277,1052L117,971Z" fill="rgb(78,84,96)" stroke="rgb(78,84,96)" stroke-width="1.51"></path>
    <path d="M33,997L26,1171L117,971Z" fill="rgb(111,116,129)" stroke="rgb(111,116,129)" stroke-width="1.51"></path>
    <path d="M-202,878L-151,1047L-17,861Z" fill="rgb(128,131,138)" stroke="rgb(128,131,138)" stroke-width="1.51"></path>
    <path d="M196,122L183,21L42,101Z" fill="rgb(209,214,224)" stroke="rgb(209,214,224)" stroke-width="1.51"></path>
    <path d="M42,101L-37,-53L-179,163Z" fill="rgb(246,248,252)" stroke="rgb(246,248,252)" stroke-width="1.51"></path>
    <path d="M386,16L183,21L196,122Z" fill="rgb(180,184,193)" stroke="rgb(180,184,193)" stroke-width="1.51"></path>
    <path d="M277,1052L474,1001L365,804Z" fill="rgb(39,45,57)" stroke="rgb(39,45,57)" stroke-width="1.51"></path>
    <path d="M522,526L664,498L510,381Z" fill="rgb(69,75,87)" stroke="rgb(69,75,87)" stroke-width="1.51"></path>
    <path d="M510,381L494,138L359,205Z" fill="rgb(102,108,120)" stroke="rgb(102,108,120)" stroke-width="1.51"></path>
    <path d="M359,205L386,16L196,122Z" fill="rgb(156,162,174)" stroke="rgb(156,162,174)" stroke-width="1.51"></path>
    <path d="M683,655L664,498L522,526Z" fill="rgb(58,64,76)" stroke="rgb(58,64,76)" stroke-width="1.51"></path>
    <path d="M683,655L522,526L534,724Z" fill="rgb(49,55,67)" stroke="rgb(49,55,67)" stroke-width="1.51"></path>
    <path d="M683,655L534,724L645,872Z" fill="rgb(35,41,53)" stroke="rgb(35,41,53)" stroke-width="1.51"></path>
    <path d="M-151,1047L26,1171L33,997Z" fill="rgb(124,126,134)" stroke="rgb(124,126,134)" stroke-width="1.51"></path>
    <path d="M277,1052L296,1161L474,1001Z" fill="rgb(42,47,59)" stroke="rgb(42,47,59)" stroke-width="1.51"></path>
    <path d="M646,214L494,138L510,381Z" fill="rgb(96,101,114)" stroke="rgb(96,101,114)" stroke-width="1.51"></path>
    <path d="M645,872L534,724L520,810Z" fill="rgb(29,35,47)" stroke="rgb(29,35,47)" stroke-width="1.51"></path>
    <path d="M198,1211L296,1161L277,1052Z" fill="rgb(64,70,82)" stroke="rgb(64,70,82)" stroke-width="1.51"></path>
    <path d="M642,980L645,872L474,1001Z" fill="rgb(16,22,33)" stroke="rgb(16,22,33)" stroke-width="1.51"></path>
    <path d="M474,1001L645,872L520,810Z" fill="rgb(19,25,36)" stroke="rgb(19,25,36)" stroke-width="1.51"></path>
    <path d="M494,138L386,16L359,205Z" fill="rgb(126,132,144)" stroke="rgb(126,132,144)" stroke-width="1.51"></path>
    <path d="M26,1171L198,1211L117,971Z" fill="rgb(98,103,116)" stroke="rgb(98,103,116)" stroke-width="1.51"></path>
    <path d="M212,-162L-37,-53L183,21Z" fill="rgb(224,227,233)" stroke="rgb(224,227,233)" stroke-width="1.51"></path>
    <path d="M183,21L-37,-53L42,101Z" fill="rgb(236,240,247)" stroke="rgb(236,240,247)" stroke-width="1.51"></path>
    <path d="M664,498L681,283L510,381Z" fill="rgb(79,85,97)" stroke="rgb(79,85,97)" stroke-width="1.51"></path>
    <path d="M494,138L447,-23L386,16Z" fill="rgb(126,130,139)" stroke="rgb(126,130,139)" stroke-width="1.51"></path>
    <path d="M683,655L681,283L664,498Z" fill="rgb(68,74,86)" stroke="rgb(68,74,86)" stroke-width="1.51"></path>
    <path d="M681,283L646,214L510,381Z" fill="rgb(90,96,109)" stroke="rgb(90,96,109)" stroke-width="1.51"></path>
    <path d="M-37,-53L-233,-13L-179,163Z" fill="rgb(251,251,254)" stroke="rgb(251,251,254)" stroke-width="1.51"></path>
    <path d="M-179,163L-233,-13L-167,468Z" fill="rgb(229,232,238)" stroke="rgb(229,232,238)" stroke-width="1.51"></path>
    <path d="M485,1186L642,980L474,1001Z" fill="rgb(13,19,31)" stroke="rgb(13,19,31)" stroke-width="1.51"></path>
    <path d="M645,872L713,1171L683,655Z" fill="rgb(19,25,36)" stroke="rgb(19,25,36)" stroke-width="1.51"></path>
    <path d="M313,-158L212,-162L183,21Z" fill="rgb(192,195,201)" stroke="rgb(192,195,201)" stroke-width="1.51"></path>
    <path d="M621,-31L447,-23L494,138Z" fill="rgb(120,124,133)" stroke="rgb(120,124,133)" stroke-width="1.51"></path>
    <path d="M26,1171L-187,1238L198,1211Z" fill="rgb(121,124,133)" stroke="rgb(121,124,133)" stroke-width="1.51"></path>
    <path d="M-151,1047L-187,1238L26,1171Z" fill="rgb(124,126,134)" stroke="rgb(124,126,134)" stroke-width="1.51">
    </path>
    <path d="M-202,878L-187,1238L-151,1047Z" fill="rgb(124,126,134)" stroke="rgb(124,126,134)" stroke-width="1.51">
    </path>
    <path d="M296,1161L485,1186L474,1001Z" fill="rgb(25,30,42)" stroke="rgb(25,30,42)" stroke-width="1.51"></path>
    <path d="M198,1211L485,1186L296,1161Z" fill="rgb(48,53,65)" stroke="rgb(48,53,65)" stroke-width="1.51"></path>
    <path d="M-37,-53L-160,-121L-233,-13Z" fill="rgb(255,255,255)" stroke="rgb(255,255,255)" stroke-width="1.51"></path>
    <path d="M-2,-208L-160,-121L-37,-53Z" fill="rgb(255,255,255)" stroke="rgb(255,255,255)" stroke-width="1.51"></path>
    <path d="M313,-158L183,21L386,16Z" fill="rgb(176,179,185)" stroke="rgb(176,179,185)" stroke-width="1.51"></path>
    <path d="M447,-23L313,-158L386,16Z" fill="rgb(149,152,159)" stroke="rgb(149,152,159)" stroke-width="1.51"></path>
    <path d="M500,-208L-2,-208L212,-162Z" fill="rgb(192,195,201)" stroke="rgb(192,195,201)" stroke-width="1.51"></path>
    <path d="M212,-162L-2,-208L-37,-53Z" fill="rgb(240,243,249)" stroke="rgb(240,243,249)" stroke-width="1.51"></path>
    <path d="M674,-136L621,-31L646,214Z" fill="rgb(122,125,133)" stroke="rgb(122,125,133)" stroke-width="1.51"></path>
    <path d="M646,214L621,-31L494,138Z" fill="rgb(112,117,129)" stroke="rgb(112,117,129)" stroke-width="1.51"></path>
    <path d="M447,-23L500,-208L313,-158Z" fill="rgb(137,140,147)" stroke="rgb(137,140,147)" stroke-width="1.51"></path>
    <path d="M642,980L713,1171L645,872Z" fill="rgb(13,19,31)" stroke="rgb(13,19,31)" stroke-width="1.51"></path>
    <path d="M683,655L713,1171L681,283Z" fill="rgb(41,47,59)" stroke="rgb(41,47,59)" stroke-width="1.51"></path>
    <path d="M485,1186L713,1171L642,980Z" fill="rgb(13,19,31)" stroke="rgb(13,19,31)" stroke-width="1.51"></path>
    <path d="M198,1211L713,1171L485,1186Z" fill="rgb(17,23,34)" stroke="rgb(17,23,34)" stroke-width="1.51"></path>
    <path d="M621,-31L500,-208L447,-23Z" fill="rgb(124,126,134)" stroke="rgb(124,126,134)" stroke-width="1.51"></path>
    <path d="M313,-158L500,-208L212,-162Z" fill="rgb(161,164,171)" stroke="rgb(161,164,171)" stroke-width="1.51"></path>
    <path d="M621,-31L674,-136L500,-208Z" fill="rgb(124,126,134)" stroke="rgb(124,126,134)" stroke-width="1.51"></path>
    <path d="M681,283L674,-136L646,214Z" fill="rgb(110,116,128)" stroke="rgb(110,116,128)" stroke-width="1.51"></path>
    <path d="M713,1171L674,-136L681,283Z" fill="rgb(73,79,91)" stroke="rgb(73,79,91)" stroke-width="1.51"></path>
</svg>