<svg xmlns="http://www.w3.org/2000/svg" viewBox="0 0 500 1000">
    <path d="M211,478L201,539L306,562Z" fill="rgb(124,130,142)" stroke="rgb(124,130,142)" stroke-width="1.51"></path>
    <path d="M306,562L337,433L211,478Z" fill="rgb(116,122,135)" stroke="rgb(116,122,135)" stroke-width="1.51"></path>
    <path d="M448,525L420,439L337,433Z" fill="rgb(88,93,106)" stroke="rgb(88,93,106)" stroke-width="1.51"></path>
    <path d="M211,478L87,472L201,539Z" fill="rgb(147,153,165)" stroke="rgb(147,153,165)" stroke-width="1.51"></path>
    <path d="M106,338L87,472L211,478Z" fill="rgb(164,170,183)" stroke="rgb(164,170,183)" stroke-width="1.51"></path>
    <path d="M201,539L168,673L306,562Z" fill="rgb(119,125,137)" stroke="rgb(119,125,137)" stroke-width="1.51"></path>
    <path d="M60,525L168,673L201,539Z" fill="rgb(142,148,160)" stroke="rgb(142,148,160)" stroke-width="1.51"></path>
    <path d="M306,562L448,525L337,433Z" fill="rgb(93,99,111)" stroke="rgb(93,99,111)" stroke-width="1.51"></path>
    <path d="M432,657L448,525L306,562Z" fill="rgb(75,81,93)" stroke="rgb(75,81,93)" stroke-width="1.51"></path>
    <path d="M168,673L326,694L306,562Z" fill="rgb(101,107,119)" stroke="rgb(101,107,119)" stroke-width="1.51"></path>
    <path d="M337,433L202,338L211,478Z" fill="rgb(136,142,154)" stroke="rgb(136,142,154)" stroke-width="1.51"></path>
    <path d="M287,299L202,338L337,433Z" fill="rgb(137,143,155)" stroke="rgb(137,143,155)" stroke-width="1.51"></path>
    <path d="M87,472L60,525L201,539Z" fill="rgb(158,164,176)" stroke="rgb(158,164,176)" stroke-width="1.51"></path>
    <path d="M468,284L287,299L337,433Z" fill="rgb(114,120,132)" stroke="rgb(114,120,132)" stroke-width="1.51"></path>
    <path d="M326,694L432,657L306,562Z" fill="rgb(79,85,97)" stroke="rgb(79,85,97)" stroke-width="1.51"></path>
    <path d="M202,338L106,338L211,478Z" fill="rgb(160,166,178)" stroke="rgb(160,166,178)" stroke-width="1.51"></path>
    <path d="M-28,433L-17,572L60,525Z" fill="rgb(185,189,195)" stroke="rgb(185,189,195)" stroke-width="1.51"></path>
    <path d="M193,236L106,338L202,338Z" fill="rgb(173,179,191)" stroke="rgb(173,179,191)" stroke-width="1.51"></path>
    <path d="M168,673L176,804L326,694Z" fill="rgb(101,107,120)" stroke="rgb(101,107,120)" stroke-width="1.51"></path>
    <path d="M60,525L83,709L168,673Z" fill="rgb(144,150,162)" stroke="rgb(144,150,162)" stroke-width="1.51"></path>
    <path d="M448,525L561,435L420,439Z" fill="rgb(72,78,91)" stroke="rgb(72,78,91)" stroke-width="1.51"></path>
    <path d="M400,209L289,223L287,299Z" fill="rgb(137,143,155)" stroke="rgb(137,143,155)" stroke-width="1.51"></path>
    <path d="M432,657L535,536L448,525Z" fill="rgb(60,66,78)" stroke="rgb(60,66,78)" stroke-width="1.51"></path>
    <path d="M60,525L-17,572L83,709Z" fill="rgb(163,168,179)" stroke="rgb(163,168,179)" stroke-width="1.51"></path>
    <path d="M-28,433L60,525L87,472Z" fill="rgb(182,187,197)" stroke="rgb(182,187,197)" stroke-width="1.51"></path>
    <path d="M287,299L193,236L202,338Z" fill="rgb(158,164,176)" stroke="rgb(158,164,176)" stroke-width="1.51"></path>
    <path d="M287,299L289,223L193,236Z" fill="rgb(155,161,173)" stroke="rgb(155,161,173)" stroke-width="1.51"></path>
    <path d="M468,284L337,433L420,439Z" fill="rgb(95,101,113)" stroke="rgb(95,101,113)" stroke-width="1.51"></path>
    <path d="M83,709L176,804L168,673Z" fill="rgb(120,126,139)" stroke="rgb(120,126,139)" stroke-width="1.51"></path>
    <path d="M326,694L444,798L432,657Z" fill="rgb(56,62,74)" stroke="rgb(56,62,74)" stroke-width="1.51"></path>
    <path d="M106,338L-28,433L87,472Z" fill="rgb(187,192,204)" stroke="rgb(187,192,204)" stroke-width="1.51"></path>
    <path d="M-23,311L-28,433L106,338Z" fill="rgb(203,207,215)" stroke="rgb(203,207,215)" stroke-width="1.51"></path>
    <path d="M535,536L561,435L448,525Z" fill="rgb(66,71,84)" stroke="rgb(66,71,84)" stroke-width="1.51"></path>
    <path d="M561,435L468,284L420,439Z" fill="rgb(81,87,99)" stroke="rgb(81,87,99)" stroke-width="1.51"></path>
    <path d="M176,804L329,839L326,694Z" fill="rgb(80,86,98)" stroke="rgb(80,86,98)" stroke-width="1.51"></path>
    <path d="M432,657L572,718L535,536Z" fill="rgb(49,55,67)" stroke="rgb(49,55,67)" stroke-width="1.51"></path>
    <path d="M329,839L444,798L326,694Z" fill="rgb(57,63,75)" stroke="rgb(57,63,75)" stroke-width="1.51"></path>
    <path d="M468,284L400,209L287,299Z" fill="rgb(117,123,136)" stroke="rgb(117,123,136)" stroke-width="1.51"></path>
    <path d="M-17,572L-37,702L83,709Z" fill="rgb(162,166,173)" stroke="rgb(162,166,173)" stroke-width="1.51"></path>
    <path d="M83,709L31,787L176,804Z" fill="rgb(126,132,144)" stroke="rgb(126,132,144)" stroke-width="1.51"></path>
    <path d="M-154,706L-37,702L-17,572Z" fill="rgb(165,168,175)" stroke="rgb(165,168,175)" stroke-width="1.51"></path>
    <path d="M55,215L-23,311L106,338Z" fill="rgb(206,212,222)" stroke="rgb(206,212,222)" stroke-width="1.51"></path>
    <path d="M189,951L321,926L329,839Z" fill="rgb(64,70,82)" stroke="rgb(64,70,82)" stroke-width="1.51"></path>
    <path d="M-37,702L31,787L83,709Z" fill="rgb(148,152,161)" stroke="rgb(148,152,161)" stroke-width="1.51"></path>
    <path d="M93,102L193,236L182,64Z" fill="rgb(198,204,216)" stroke="rgb(198,204,216)" stroke-width="1.51"></path>
    <path d="M93,102L55,215L193,236Z" fill="rgb(202,208,220)" stroke="rgb(202,208,220)" stroke-width="1.51"></path>
    <path d="M193,236L55,215L106,338Z" fill="rgb(191,197,209)" stroke="rgb(191,197,209)" stroke-width="1.51"></path>
    <path d="M535,536L660,546L561,435Z" fill="rgb(65,70,83)" stroke="rgb(65,70,83)" stroke-width="1.51"></path>
    <path d="M444,798L572,718L432,657Z" fill="rgb(41,46,59)" stroke="rgb(41,46,59)" stroke-width="1.51"></path>
    <path d="M643,353L568,300L561,435Z" fill="rgb(82,87,100)" stroke="rgb(82,87,100)" stroke-width="1.51"></path>
    <path d="M561,435L568,300L468,284Z" fill="rgb(85,90,103)" stroke="rgb(85,90,103)" stroke-width="1.51"></path>
    <path d="M523,107L410,106L400,209Z" fill="rgb(115,121,134)" stroke="rgb(115,121,134)" stroke-width="1.51"></path>
    <path d="M-37,702L-28,773L31,787Z" fill="rgb(151,154,161)" stroke="rgb(151,154,161)" stroke-width="1.51"></path>
    <path d="M572,718L660,546L535,536Z" fill="rgb(53,59,71)" stroke="rgb(53,59,71)" stroke-width="1.51"></path>
    <path d="M444,798L571,788L572,718Z" fill="rgb(33,39,51)" stroke="rgb(33,39,51)" stroke-width="1.51"></path>
    <path d="M572,718L706,693L660,546Z" fill="rgb(48,53,65)" stroke="rgb(48,53,65)" stroke-width="1.51"></path>
    <path d="M534,890L571,788L444,798Z" fill="rgb(26,32,44)" stroke="rgb(26,32,44)" stroke-width="1.51"></path>
    <path d="M329,839L440,961L444,798Z" fill="rgb(35,41,53)" stroke="rgb(35,41,53)" stroke-width="1.51"></path>
    <path d="M189,951L329,839L176,804Z" fill="rgb(79,85,97)" stroke="rgb(79,85,97)" stroke-width="1.51"></path>
    <path d="M91,895L176,804L31,787Z" fill="rgb(116,122,134)" stroke="rgb(116,122,134)" stroke-width="1.51"></path>
    <path d="M-86,937L91,895L31,787Z" fill="rgb(129,132,142)" stroke="rgb(129,132,142)" stroke-width="1.51"></path>
    <path d="M707,473L643,353L561,435Z" fill="rgb(75,81,93)" stroke="rgb(75,81,93)" stroke-width="1.51"></path>
    <path d="M-28,433L-167,457L-17,572Z" fill="rgb(190,193,199)" stroke="rgb(190,193,199)" stroke-width="1.51"></path>
    <path d="M-37,702L-154,706L-28,773Z" fill="rgb(155,158,165)" stroke="rgb(155,158,165)" stroke-width="1.51"></path>
    <path d="M-165,297L-167,457L-28,433Z" fill="rgb(202,205,212)" stroke="rgb(202,205,212)" stroke-width="1.51"></path>
    <path d="M-165,297L-28,433L-23,311Z" fill="rgb(209,212,218)" stroke="rgb(209,212,218)" stroke-width="1.51"></path>
    <path d="M523,107L400,209L468,284Z" fill="rgb(106,111,124)" stroke="rgb(106,111,124)" stroke-width="1.51"></path>
    <path d="M400,209L316,69L289,223Z" fill="rgb(144,150,162)" stroke="rgb(144,150,162)" stroke-width="1.51"></path>
    <path d="M589,205L468,284L568,300Z" fill="rgb(94,99,112)" stroke="rgb(94,99,112)" stroke-width="1.51"></path>
    <path d="M91,895L189,951L176,804Z" fill="rgb(96,102,114)" stroke="rgb(96,102,114)" stroke-width="1.51"></path>
    <path d="M55,215L-59,215L-23,311Z" fill="rgb(223,226,232)" stroke="rgb(223,226,232)" stroke-width="1.51"></path>
    <path d="M-35,66L-59,215L55,215Z" fill="rgb(234,237,243)" stroke="rgb(234,237,243)" stroke-width="1.51"></path>
    <path d="M182,64L193,236L289,223Z" fill="rgb(175,181,193)" stroke="rgb(175,181,193)" stroke-width="1.51"></path>
    <path d="M706,693L707,473L660,546Z" fill="rgb(57,63,75)" stroke="rgb(57,63,75)" stroke-width="1.51"></path>
    <path d="M660,546L707,473L561,435Z" fill="rgb(68,73,86)" stroke="rgb(68,73,86)" stroke-width="1.51"></path>
    <path d="M410,106L316,69L400,209Z" fill="rgb(137,143,155)" stroke="rgb(137,143,155)" stroke-width="1.51"></path>
    <path d="M688,200L568,300L643,353Z" fill="rgb(91,97,109)" stroke="rgb(91,97,109)" stroke-width="1.51"></path>
    <path d="M688,200L589,205L568,300Z" fill="rgb(97,103,115)" stroke="rgb(97,103,115)" stroke-width="1.51"></path>
    <path d="M-167,457L-189,587L-17,572Z" fill="rgb(183,186,192)" stroke="rgb(183,186,192)" stroke-width="1.51"></path>
    <path d="M-189,587L-154,706L-17,572Z" fill="rgb(171,174,180)" stroke="rgb(171,174,180)" stroke-width="1.51"></path>
    <path d="M29,1069L152,1025L91,895Z" fill="rgb(103,109,122)" stroke="rgb(103,109,122)" stroke-width="1.51"></path>
    <path d="M316,69L182,64L289,223Z" fill="rgb(170,176,188)" stroke="rgb(170,176,188)" stroke-width="1.51"></path>
    <path d="M571,788L671,759L572,718Z" fill="rgb(35,41,53)" stroke="rgb(35,41,53)" stroke-width="1.51"></path>
    <path d="M440,961L534,890L444,798Z" fill="rgb(22,28,40)" stroke="rgb(22,28,40)" stroke-width="1.51"></path>
    <path d="M440,961L329,839L321,926Z" fill="rgb(43,49,61)" stroke="rgb(43,49,61)" stroke-width="1.51"></path>
    <path d="M663,915L671,759L571,788Z" fill="rgb(26,32,44)" stroke="rgb(26,32,44)" stroke-width="1.51"></path>
    <path d="M396,1013L440,961L321,926Z" fill="rgb(34,40,52)" stroke="rgb(34,40,52)" stroke-width="1.51"></path>
    <path d="M671,759L706,693L572,718Z" fill="rgb(39,45,56)" stroke="rgb(39,45,56)" stroke-width="1.51"></path>
    <path d="M-167,457L-165,297L-189,587Z" fill="rgb(196,199,205)" stroke="rgb(196,199,205)" stroke-width="1.51"></path>
    <path d="M-59,215L-165,297L-23,311Z" fill="rgb(219,222,228)" stroke="rgb(219,222,228)" stroke-width="1.51"></path>
    <path d="M589,205L523,107L468,284Z" fill="rgb(101,107,119)" stroke="rgb(101,107,119)" stroke-width="1.51"></path>
    <path d="M460,-22L302,-42L316,69Z" fill="rgb(156,159,166)" stroke="rgb(156,159,166)" stroke-width="1.51"></path>
    <path d="M-59,215L-158,235L-165,297Z" fill="rgb(223,226,232)" stroke="rgb(223,226,232)" stroke-width="1.51"></path>
    <path d="M-173,82L-158,235L-59,215Z" fill="rgb(232,235,241)" stroke="rgb(232,235,241)" stroke-width="1.51"></path>
    <path d="M510,1067L663,915L534,890Z" fill="rgb(16,22,33)" stroke="rgb(16,22,33)" stroke-width="1.51"></path>
    <path d="M300,1030L396,1013L321,926Z" fill="rgb(45,51,63)" stroke="rgb(45,51,63)" stroke-width="1.51"></path>
    <path d="M189,951L300,1030L321,926Z" fill="rgb(63,68,80)" stroke="rgb(63,68,80)" stroke-width="1.51"></path>
    <path d="M152,1025L300,1030L189,951Z" fill="rgb(74,80,92)" stroke="rgb(74,80,92)" stroke-width="1.51"></path>
    <path d="M-86,937L31,787L-28,773Z" fill="rgb(138,141,149)" stroke="rgb(138,141,149)" stroke-width="1.51"></path>
    <path d="M91,895L152,1025L189,951Z" fill="rgb(93,99,111)" stroke="rgb(93,99,111)" stroke-width="1.51"></path>
    <path d="M589,205L658,82L523,107Z" fill="rgb(109,114,127)" stroke="rgb(109,114,127)" stroke-width="1.51"></path>
    <path d="M707,473L688,200L643,353Z" fill="rgb(85,90,103)" stroke="rgb(85,90,103)" stroke-width="1.51"></path>
    <path d="M93,102L-35,66L55,215Z" fill="rgb(229,234,244)" stroke="rgb(229,234,244)" stroke-width="1.51"></path>
    <path d="M-34,-10L-35,66L93,102Z" fill="rgb(247,248,252)" stroke="rgb(247,248,252)" stroke-width="1.51"></path>
    <path d="M-179,841L-86,937L-28,773Z" fill="rgb(135,138,146)" stroke="rgb(135,138,146)" stroke-width="1.51"></path>
    <path d="M-189,587L-179,841L-154,706Z" fill="rgb(157,160,167)" stroke="rgb(157,160,167)" stroke-width="1.51"></path>
    <path d="M-154,706L-179,841L-28,773Z" fill="rgb(148,151,158)" stroke="rgb(148,151,158)" stroke-width="1.51"></path>
    <path d="M182,64L149,-50L93,102Z" fill="rgb(213,217,225)" stroke="rgb(213,217,225)" stroke-width="1.51"></path>
    <path d="M316,69L302,-42L182,64Z" fill="rgb(179,183,191)" stroke="rgb(179,183,191)" stroke-width="1.51"></path>
    <path d="M460,-22L316,69L410,106Z" fill="rgb(139,143,153)" stroke="rgb(139,143,153)" stroke-width="1.51"></path>
    <path d="M460,-22L410,106L523,107Z" fill="rgb(121,126,135)" stroke="rgb(121,126,135)" stroke-width="1.51"></path>
    <path d="M510,1067L534,890L440,961Z" fill="rgb(15,21,33)" stroke="rgb(15,21,33)" stroke-width="1.51"></path>
    <path d="M534,890L663,915L571,788Z" fill="rgb(21,27,39)" stroke="rgb(21,27,39)" stroke-width="1.51"></path>
    <path d="M671,759L663,915L706,693Z" fill="rgb(30,36,48)" stroke="rgb(30,36,48)" stroke-width="1.51"></path>
    <path d="M-179,841L-168,900L-86,937Z" fill="rgb(130,133,141)" stroke="rgb(130,133,141)" stroke-width="1.51"></path>
    <path d="M522,-41L460,-22L523,107Z" fill="rgb(122,125,133)" stroke="rgb(122,125,133)" stroke-width="1.51"></path>
    <path d="M302,-42L149,-50L182,64Z" fill="rgb(199,202,208)" stroke="rgb(199,202,208)" stroke-width="1.51"></path>
    <path d="M688,200L658,82L589,205Z" fill="rgb(105,111,124)" stroke="rgb(105,111,124)" stroke-width="1.51"></path>
    <path d="M-54,1075L29,1069L-86,937Z" fill="rgb(124,126,134)" stroke="rgb(124,126,134)" stroke-width="1.51"></path>
    <path d="M-86,937L29,1069L91,895Z" fill="rgb(123,126,135)" stroke="rgb(123,126,135)" stroke-width="1.51"></path>
    <path d="M152,1025L323,1126L300,1030Z" fill="rgb(64,70,82)" stroke="rgb(64,70,82)" stroke-width="1.51"></path>
    <path d="M396,1013L510,1067L440,961Z" fill="rgb(19,25,36)" stroke="rgb(19,25,36)" stroke-width="1.51"></path>
    <path d="M468,1163L510,1067L396,1013Z" fill="rgb(18,24,35)" stroke="rgb(18,24,35)" stroke-width="1.51"></path>
    <path d="M323,1126L396,1013L300,1030Z" fill="rgb(44,50,62)" stroke="rgb(44,50,62)" stroke-width="1.51"></path>
    <path d="M-35,66L-173,82L-59,215Z" fill="rgb(240,243,248)" stroke="rgb(240,243,248)" stroke-width="1.51"></path>
    <path d="M36,-67L-34,-10L93,102Z" fill="rgb(246,247,251)" stroke="rgb(246,247,251)" stroke-width="1.51"></path>
    <path d="M170,1198L323,1126L152,1025Z" fill="rgb(74,79,92)" stroke="rgb(74,79,92)" stroke-width="1.51"></path>
    <path d="M-34,-10L-173,82L-35,66Z" fill="rgb(249,250,252)" stroke="rgb(249,250,252)" stroke-width="1.51"></path>
    <path d="M-158,235L-173,82L-165,297Z" fill="rgb(229,232,238)" stroke="rgb(229,232,238)" stroke-width="1.51"></path>
    <path d="M-165,297L-211,-42L-189,587Z" fill="rgb(219,222,228)" stroke="rgb(219,222,228)" stroke-width="1.51"></path>
    <path d="M658,82L522,-41L523,107Z" fill="rgb(118,122,132)" stroke="rgb(118,122,132)" stroke-width="1.51"></path>
    <path d="M460,-22L413,-149L302,-42Z" fill="rgb(146,149,156)" stroke="rgb(146,149,156)" stroke-width="1.51"></path>
    <path d="M87,-132L36,-67L149,-50Z" fill="rgb(232,235,241)" stroke="rgb(232,235,241)" stroke-width="1.51"></path>
    <path d="M-34,-10L-211,-42L-173,82Z" fill="rgb(254,254,254)" stroke="rgb(254,254,254)" stroke-width="1.51"></path>
    <path d="M149,-50L36,-67L93,102Z" fill="rgb(231,234,240)" stroke="rgb(231,234,240)" stroke-width="1.51"></path>
    <path d="M87,-132L149,-50L187,-180Z" fill="rgb(218,221,227)" stroke="rgb(218,221,227)" stroke-width="1.51"></path>
    <path d="M29,1069L42,1147L152,1025Z" fill="rgb(107,113,126)" stroke="rgb(107,113,126)" stroke-width="1.51"></path>
    <path d="M-193,1009L-54,1075L-86,937Z" fill="rgb(124,126,134)" stroke="rgb(124,126,134)" stroke-width="1.51"></path>
    <path d="M-54,1075L42,1147L29,1069Z" fill="rgb(122,125,134)" stroke="rgb(122,125,134)" stroke-width="1.51"></path>
    <path d="M-54,1075L-69,1136L42,1147Z" fill="rgb(124,126,134)" stroke="rgb(124,126,134)" stroke-width="1.51"></path>
    <path d="M-168,900L-193,1009L-86,937Z" fill="rgb(127,130,137)" stroke="rgb(127,130,137)" stroke-width="1.51"></path>
    <path d="M-179,841L-193,1009L-168,900Z" fill="rgb(129,132,140)" stroke="rgb(129,132,140)" stroke-width="1.51">
    </path>
    <path d="M-189,587L-193,1009L-179,841Z" fill="rgb(141,144,152)" stroke="rgb(141,144,152)" stroke-width="1.51">
    </path>
    <path d="M-160,-119L-211,-42L-34,-10Z" fill="rgb(255,255,255)" stroke="rgb(255,255,255)" stroke-width="1.51"></path>
    <path d="M187,-180L149,-50L302,-42Z" fill="rgb(199,202,208)" stroke="rgb(199,202,208)" stroke-width="1.51"></path>
    <path d="M510,1067L695,1052L663,915Z" fill="rgb(13,19,31)" stroke="rgb(13,19,31)" stroke-width="1.51"></path>
    <path d="M323,1126L468,1163L396,1013Z" fill="rgb(30,36,48)" stroke="rgb(30,36,48)" stroke-width="1.51"></path>
    <path d="M170,1198L468,1163L323,1126Z" fill="rgb(49,55,67)" stroke="rgb(49,55,67)" stroke-width="1.51"></path>
    <path d="M522,-41L413,-149L460,-22Z" fill="rgb(128,131,138)" stroke="rgb(128,131,138)" stroke-width="1.51"></path>
    <path d="M542,-170L413,-149L522,-41Z" fill="rgb(125,127,135)" stroke="rgb(125,127,135)" stroke-width="1.51"></path>
    <path d="M42,1147L170,1198L152,1025Z" fill="rgb(96,102,114)" stroke="rgb(96,102,114)" stroke-width="1.51"></path>
    <path d="M677,1134L695,1052L510,1067Z" fill="rgb(13,19,31)" stroke="rgb(13,19,31)" stroke-width="1.51"></path>
    <path d="M663,915L695,1052L706,693Z" fill="rgb(19,25,37)" stroke="rgb(19,25,37)" stroke-width="1.51"></path>
    <path d="M42,1147L-69,1136L170,1198Z" fill="rgb(113,118,130)" stroke="rgb(113,118,130)" stroke-width="1.51"></path>
    <path d="M-137,1118L-69,1136L-54,1075Z" fill="rgb(124,126,134)" stroke="rgb(124,126,134)" stroke-width="1.51">
    </path>
    <path d="M314,-194L187,-180L302,-42Z" fill="rgb(183,186,193)" stroke="rgb(183,186,193)" stroke-width="1.51"></path>
    <path d="M658,82L704,-36L522,-41Z" fill="rgb(124,126,134)" stroke="rgb(124,126,134)" stroke-width="1.51"></path>
    <path d="M688,200L704,-36L658,82Z" fill="rgb(115,119,130)" stroke="rgb(115,119,130)" stroke-width="1.51"></path>
    <path d="M707,473L704,-36L688,200Z" fill="rgb(100,105,118)" stroke="rgb(100,105,118)" stroke-width="1.51"></path>
    <path d="M413,-149L314,-194L302,-42Z" fill="rgb(161,164,171)" stroke="rgb(161,164,171)" stroke-width="1.51"></path>
    <path d="M542,-170L314,-194L413,-149Z" fill="rgb(136,139,146)" stroke="rgb(136,139,146)" stroke-width="1.51"></path>
    <path d="M-193,1009L-137,1118L-54,1075Z" fill="rgb(124,126,134)" stroke="rgb(124,126,134)" stroke-width="1.51">
    </path>
    <path d="M-17,-181L-34,-10L36,-67Z" fill="rgb(255,255,255)" stroke="rgb(255,255,255)" stroke-width="1.51"></path>
    <path d="M-173,82L-211,-42L-165,297Z" fill="rgb(241,244,249)" stroke="rgb(241,244,249)" stroke-width="1.51"></path>
    <path d="M-189,587L-211,-42L-193,1009Z" fill="rgb(185,188,195)" stroke="rgb(185,188,195)" stroke-width="1.51">
    </path>
    <path d="M-17,-181L36,-67L87,-132Z" fill="rgb(246,248,252)" stroke="rgb(246,248,252)" stroke-width="1.51"></path>
    <path d="M662,-157L542,-170L522,-41Z" fill="rgb(124,126,134)" stroke="rgb(124,126,134)" stroke-width="1.51"></path>
    <path d="M570,1197L677,1134L510,1067Z" fill="rgb(13,19,31)" stroke="rgb(13,19,31)" stroke-width="1.51"></path>
    <path d="M468,1163L570,1197L510,1067Z" fill="rgb(13,19,31)" stroke="rgb(13,19,31)" stroke-width="1.51"></path>
    <path d="M170,1198L570,1197L468,1163Z" fill="rgb(28,34,46)" stroke="rgb(28,34,46)" stroke-width="1.51"></path>
    <path d="M314,-194L-17,-181L187,-180Z" fill="rgb(213,216,222)" stroke="rgb(213,216,222)" stroke-width="1.51"></path>
    <path d="M187,-180L-17,-181L87,-132Z" fill="rgb(233,236,242)" stroke="rgb(233,236,242)" stroke-width="1.51"></path>
    <path d="M-17,-181L-160,-119L-34,-10Z" fill="rgb(255,255,255)" stroke="rgb(255,255,255)" stroke-width="1.51"></path>
    <path d="M704,-36L662,-157L522,-41Z" fill="rgb(124,126,134)" stroke="rgb(124,126,134)" stroke-width="1.51"></path>
</svg>