<svg xmlns="http://www.w3.org/2000/svg" width="394" height="417"><rect id="backgroundrect" width="100%" height="100%" x="0" y="0" fill="none" stroke="none" class="" style=""/>
  
<g class="currentLayer" style=""><title>Layer 1</title><g id="svg_1" class="" fill="#000000" fill-opacity="1" transform="rotate(-108.8918228149414 344.99392700195307,200.09487915039065) " filter="">
    <path d="M378.1585878372192,115.14437904357908 C427.25858783721924,151.4443790435791 505.4585878372193,157.84437904357912 531.4585878372193,190.5443790435791 C557.4585878372193,223.14437904357908 531.1585878372192,281.9443790435791 492.1585878372192,318.3443790435791 C453.1585878372192,354.6443790435791 401.4585878372193,368.6443790435791 352.35858783721926,384.2443790435791 C303.1585878372192,399.8443790435791 256.55858783721925,417.04437904357906 221.65858783721922,403.6443790435791 C186.65858783721922,390.2443790435791 163.45858783721923,346.2443790435791 154.05858783721925,305.9443790435791 C144.65858783721922,265.5443790435791 148.95858783721923,228.9443790435791 150.05858783721925,186.2443790435791 C151.05858783721925,143.5443790435791 148.85858783721926,94.84437904357912 171.45858783721923,53.844379043579096 C194.15858783721922,12.844379043579096 241.65858783721922,-20.455620956420887 275.4585878372192,-3.955620956420887 C309.1585878372192,12.544379043579113 329.1585878372192,78.7443790435791 378.1585878372192,115.14437904357908 z" fill="#000000" id="svg_2" fill-opacity="1" filter=""/>
  </g></g><defs><filter id="f038" xmlns:inkscape="http://www.inkscape.org/namespaces/inkscape" inkscape:label="Button" x="0" y="0" width="1" height="1" inkscape:menu="Bevels" inkscape:menu-tooltip="Soft bevel, slightly depressed middle" color-interpolation-filters="sRGB">
            <feGaussianBlur stdDeviation="2.3" in="SourceAlpha" result="result0"/>
            <feMorphology in="SourceAlpha" radius="6.6" result="result1"/>
            <feGaussianBlur stdDeviation="8.9" in="result1"/>
            <feColorMatrix id="feColorMatrix2861" values="1 0 0 0 0 0 1 0 0 0 0 0 1 0 0 0 0 0 0.3 0" result="result91"/>
            <feComposite in="result0" operator="out" result="result2" in2="result91"/>
            <feGaussianBlur stdDeviation="1.7" result="result4"/>
            <feDiffuseLighting surfaceScale="10">
                <feDistantLight azimuth="225" elevation="45"/>
            </feDiffuseLighting>
            <feBlend id="feBlend2863" in2="SourceGraphic" mode="multiply"/>
            <feComposite in2="SourceAlpha" operator="in" result="result3"/>
            <feSpecularLighting in="result4" surfaceScale="5" specularExponent="17.9">
                <feDistantLight azimuth="225" elevation="45"/>
            </feSpecularLighting>
            <feComposite in2="result3" operator="atop"/>
        </filter></defs></svg>