<svg xmlns="http://www.w3.org/2000/svg" width="278" height="275"><rect id="backgroundrect" width="100%" height="100%" x="0" y="0" fill="none" stroke="none" class="" style=""/>

 <g style="">
  <title>background</title>
  <rect fill="none" id="canvas_background" height="402" width="582" y="-1" x="-1"/>
 </g>
 <g style="" class="currentLayer">
  <title>Layer 1</title>
  <g stroke="null" transform="rotate(-171 240.42565917968747,242.0000610351562) " id="svg_1" class="">
   <path stroke="null" id="svg_2" fill="#000000" d="m289.7995095253906,133.79258998828124 c28.793616,22.999698 65.040899,30.076529 86.585058,51.723303 c21.442055,21.542704 28.180986,57.863494 9.802082,80.446909 c-18.378904,22.583414 -61.875643,31.533523 -84.542958,59.632702 c-22.76942,28.099179 -24.709415,75.243357 -46.253575,104.695459 c-21.54416,29.348031 -62.692483,41.003987 -105.780802,37.985927 c-43.190424,-3.01806 -88.320844,-20.710136 -96.18293,-56.510571 c-7.964192,-35.904506 21.339949,-89.813301 13.784178,-138.830758 c-7.657877,-49.017457 -52.277771,-93.039504 -41.556744,-108.962372 c10.823132,-15.922868 76.885081,-3.642486 118.237615,-20.918278 c41.352534,-17.17172 57.893547,-63.691472 76.782976,-67.5421 c18.991534,-3.746557 40.331483,35.176009 69.1251,58.279778 z"/>
  </g>
 </g>
</svg>