<svg xmlns="http://www.w3.org/2000/svg" width="190" height="290"><rect id="backgroundrect" width="100%" height="100%" x="0" y="0" fill="none" stroke="none" class="" style=""/>

 <g style="">
  <title>background</title>
  <rect fill="none" id="canvas_background" height="563" width="402" y="-1" x="-1"/>
 </g>
 <g style="" class="currentLayer">
  <title>Layer 1</title>
  <g transform="rotate(25 -9.841812133789025,87.37216186523436) " stroke="null" id="svg_1">
   <path stroke="null" id="svg_2" fill="#000000" d="m69.362945,-93.679047c36.716611,3.976615 72.591581,28.142201 72.381171,59.037444c-0.21041,30.895243 -36.506201,68.520143 -37.663458,114.608096c-1.157257,46.087953 32.718814,100.536995 25.985682,137.040285c-6.627927,36.605255 -53.970263,55.162793 -97.420006,51.594036c-43.449744,-3.568757 -83.1121,-29.365775 -117.724608,-49.350817c-34.717713,-19.985042 -64.385576,-34.158107 -73.222812,-58.119764c-8.942441,-23.859693 3.050951,-57.507977 13.887085,-81.877492c10.836135,-24.47148 20.515012,-39.766154 29.352248,-54.041184c8.942441,-14.376994 16.938036,-27.836308 28.931427,-42.723125c11.888186,-14.988781 27.879375,-31.405065 54.601494,-47.719385c26.722118,-16.31432 64.280371,-32.42471 100.891777,-28.448095z"/>
  </g>
 </g>
</svg>