<?xml version="1.0" standalone="no"?>
<!DOCTYPE svg PUBLIC "-//W3C//DTD SVG 20010904//EN"
 "http://www.w3.org/TR/2001/REC-SVG-20010904/DTD/svg10.dtd">
<svg version="1.0" xmlns="http://www.w3.org/2000/svg"
 width="700.000000pt" height="700.000000pt" viewBox="0 0 700.000000 700.000000"
 preserveAspectRatio="xMidYMid meet">
<metadata>
Created by potrace 1.11, written by Peter Selinger 2001-2013
</metadata>
<g transform="translate(0.000000,700.000000) scale(0.100000,-0.100000)"
fill="#000000" stroke="none">
<path d="M1479 6996 c-2 -2 -49 -7 -104 -10 -55 -4 -109 -9 -120 -11 -11 -2
-38 -7 -60 -10 -429 -57 -784 -292 -998 -661 -77 -135 -141 -330 -163 -499 -3
-22 -7 -51 -9 -65 -17 -96 -20 -451 -20 -2245 0 -1786 3 -2133 19 -2235 3 -14
7 -43 10 -65 26 -184 64 -303 148 -465 70 -134 127 -211 237 -320 217 -215
494 -344 826 -384 146 -18 473 -21 2270 -21 1771 0 2123 3 2226 20 13 2 42 6
64 9 181 26 310 67 468 149 248 129 448 339 570 597 69 146 98 248 131 470 18
119 21 434 21 2245 0 1789 -3 2152 -20 2245 -2 14 -6 43 -9 65 -41 316 -189
607 -417 819 -165 153 -401 275 -623 320 -103 22 -120 24 -194 31 -37 4 -78 9
-92 13 -26 6 -4154 15 -4161 8z m211 -3336 l0 -870 538 -2 537 -3 1 -197 c0
-133 -3 -198 -10 -201 -10 -3 -1543 -1 -1556 2 -4 1 -6 2110 -1 2134 0 4 111
7 246 7 l245 0 0 -870z m1320 859 c0 -7 36 -125 81 -263 44 -138 99 -307 120
-376 22 -69 48 -150 58 -180 11 -30 51 -154 89 -275 39 -121 83 -259 98 -307
18 -55 31 -83 36 -74 6 11 304 895 455 1349 l46 137 230 -2 230 -3 23 -70 c12
-38 49 -153 82 -255 33 -102 99 -306 147 -455 48 -148 109 -337 135 -420 27
-82 59 -181 71 -220 12 -38 25 -73 28 -77 4 -4 41 97 83 225 42 128 154 467
248 755 l172 522 238 0 237 0 -32 -97 c-18 -54 -92 -280 -165 -503 -73 -223
-143 -436 -156 -475 -75 -224 -334 -1023 -334 -1033 0 -35 -23 -38 -285 -37
-218 0 -259 3 -266 15 -4 8 -39 112 -78 230 -38 118 -120 370 -181 560 -62
190 -127 392 -146 450 -19 58 -41 124 -50 148 l-16 42 -240 -717 c-133 -395
-245 -720 -249 -723 -6 -4 -498 -5 -521 -1 -3 0 -38 97 -76 214 -529 1607
-632 1921 -632 1924 0 2 117 3 260 3 188 0 260 -3 260 -11z"/>
</g>
</svg>
